<svg
  xmlns="http://www.w3.org/2000/svg"
  width="336.063"
  height="77.945"
  viewBox="0 0 336.063 77.945"
>
  <path
    fill="#36a3a3"
    d="M1160.152 409.721a42 42 0 004.219 10.538v.008l.075.132.012.02.08.141.088.152.05.086.038.064c.013.021.038.064.057.1l.031.054.063.1.027.044c.022.037.043.074.066.11l.022.037.069.115.021.033.071.117.018.028.076.122.013.023.077.123.014.022.082.13v.008a41.973 41.973 0 006.323 7.772 33.93 33.93 0 01-14.47 3.268 33.142 33.142 0 01-11.088-1.909m51.919-21.463a33.834 33.834 0 014.464 3.685 33.3 33.3 0 019.5 17.777 33.3 33.3 0 01-20.143.666 33.829 33.829 0 01-5.423-2.023 41.784 41.784 0 004.5-5.124l.008-.011.086-.117.017-.023.08-.109.023-.031.075-.1.028-.038.072-.1.03-.042.067-.095c.011-.016.024-.032.034-.048l.064-.091.037-.052.062-.087.04-.057.059-.083.043-.062.056-.081.045-.065.053-.078.051-.075.046-.067.084-.126.027-.04a8.93 8.93 0 00.083-.124l.024-.036.073-.11.031-.047.065-.1.032-.049.064-.1.032-.05.063-.1.035-.055.06-.094.036-.056.059-.093.035-.057.059-.094.035-.055.06-.1.033-.052.06-.1.033-.054.06-.1.033-.055.059-.1.032-.054.062-.1.029-.049.063-.107.028-.046.068-.118a.67.67 0 00.021-.036l.09-.155.078-.135.024-.042.054-.1.027-.047.057-.1.02-.036.075-.135.019-.033.057-.1.026-.046c.018-.031.036-.065.053-.1l.023-.042.069-.129v-.008l.074-.138c.007-.012.013-.025.021-.037l.053-.1.024-.044.055-.105.018-.033.073-.14.007-.012.065-.124.021-.041c.017-.034.035-.069.053-.1l.019-.038c.022-.042.044-.085.064-.127l.006-.011.071-.142.014-.027.056-.113.02-.039.053-.11.015-.03c.047-.094.093-.191.138-.284l.015-.031.053-.112.017-.035.059-.125.008-.016.067-.144.01-.022.056-.12.016-.035.051-.114.014-.029.13-.287.012-.029.051-.115.015-.035.055-.123.007-.019.064-.149.059-.137.014-.034.049-.115.012-.03.122-.291.01-.023.05-.122a.287.287 0 01.012-.03l.053-.131v-.013l.119-.295.01-.028.048-.122.01-.026.114-.3.007-.018.049-.13.01-.026.048-.13.008-.018.11-.3.007-.02.047-.131.007-.021c.054-.15.106-.3.158-.45l.008-.022.046-.137v-.012l.1-.305v-.011l.046-.137.008-.023c.015-.048.031-.1.047-.146.033-.1.065-.206.1-.308l.006-.016.043-.138v-.014c.032-.1.063-.2.094-.307v-.01l.043-.141v-.017l.043-.144v-.008c.03-.1.06-.2.089-.307v-.015l.039-.14v-.014l.085-.311.041-.149v-.017l.04-.149.083-.316.038-.151v-.011c0-.017.009-.031.012-.048m-18.983-5.888h.273a33.644 33.644 0 0110.864 1.9 33.641 33.641 0 01-3.787 10.356l-.011.02-.032.056-.024.042-.022.039-.047.082-.082.139a.173.173 0 01-.013.023l-.082.141-.006.009a33.656 33.656 0 01-7.031 8.383 33.626 33.626 0 01-7.032-8.384v-.009a10.355 10.355 0 01-.083-.141c0-.007-.009-.015-.013-.023l-.082-.139-.063-.111-.01-.018a33.356 33.356 0 01-3.83-10.455 33.357 33.357 0 0110.7-1.909h.421m-7.2-21.046a33.36 33.36 0 017.205-8.658 33.3 33.3 0 0110.643 17.106 33.78 33.78 0 01.959 5.708 41.968 41.968 0 00-8.87-1.536h-.021l-.156-.009-.329-.019h-.022l-.139-.007h-.028l-.322-.014h-.359l-.315-.01H1178.042l-.317.01h-.355l-.326.014h-.022l-.149.008h-.013l-.5.028h-.007a41.863 41.863 0 00-8.853 1.529 33.534 33.534 0 014.383-14.15m-13.014 17.706a42.012 42.012 0 00-21.793 35.924 42.011 42.011 0 0042.008-.913 42.011 42.011 0 0042.008.913 42.013 42.013 0 00-21.8-35.924 42.009 42.009 0 00-20.214-36.836 42.013 42.013 0 00-20.214 36.836m207.224 9.252a33.345 33.345 0 0113.958 21.44 33.291 33.291 0 01-20.136.664 33.872 33.872 0 01-5.424-2.023 41.7 41.7 0 004.5-5.124l.009-.011c.029-.039.058-.077.086-.117a.184.184 0 00.017-.023l.08-.109.023-.031.075-.1.028-.038c.024-.031.048-.066.071-.1l.03-.042.068-.095.034-.048.064-.091.037-.052.062-.087.04-.057.059-.083.043-.062.055-.081.046-.065.053-.078.051-.075.045-.067.085-.126.027-.04.083-.124.024-.036.073-.11.031-.047.065-.1.032-.049.064-.1.032-.05.063-.1.035-.055.06-.094.035-.056.06-.093.035-.057.059-.094.034-.055c.021-.032.041-.064.061-.1l.032-.052c.01-.018.041-.065.061-.1l.033-.054.06-.1.032-.055.06-.1.032-.054.062-.1.029-.049.063-.107.028-.046c.024-.039.046-.079.069-.118l.021-.036c.03-.051.06-.1.089-.155l.079-.136.022-.038.058-.1.023-.039.065-.117.011-.02.079-.142.006-.011.071-.129.016-.028.066-.12.01-.02c.052-.1.106-.2.157-.292l.075-.14.007-.012a41.948 41.948 0 003.643-9.488m-51.921 21.438a33.3 33.3 0 019.5-17.777 33.825 33.825 0 014.464-3.684 41.844 41.844 0 003.109 8.457c.073.149.148.3.224.446l.01.021.065.127.01.019.151.291.007.012.066.126.017.031.064.121.01.019c.05.094.1.188.152.282l.02.035.057.105.022.039.066.119.01.018.077.137.02.035.058.1.024.043c.019.032.038.065.056.1l.024.042.078.135.089.154.025.042.066.113.027.046.063.106.033.055c.02.032.039.065.058.1l.034.057.057.095.036.059.057.093.035.058c.019.031.038.063.058.093l.035.058.06.1.032.052c.021.032.042.065.062.1l.033.052.063.1.03.048.065.1.031.048.067.105c.01.013.018.027.026.041l.073.112.024.036.082.126.013.02c.03.047.062.094.093.14v.008q.149.223.3.444l.012.018.085.124.025.036.077.11.026.037.072.1.034.048.066.094.037.052.063.088.04.055.064.089.037.052.062.085.044.06.059.08.045.062.057.076c.015.021.031.044.047.064l.057.076.046.063.056.074.048.065.053.069.053.07.045.058.06.079.05.065.15.194.007.008.086.11.018.023.082.1c.008.01.015.02.024.029l.079.1.027.034.077.1.029.037.081.1.025.03.082.1.026.03.083.1.025.029.083.1.023.027.089.107.014.016.095.113.011.012.1.118q1.31 1.535 2.743 2.917a33.929 33.929 0 01-14.47 3.268 33.159 33.159 0 01-11.095-1.911m32.943-27.35h.422a33.356 33.356 0 0110.7 1.909 33.377 33.377 0 01-3.627 10.094l-.064.115-.008.015-.058.1-.008.013-.061.106-.014.026-.063.107-.084.146-.008.012a33.623 33.623 0 01-7.121 8.538 33.6 33.6 0 01-7.122-8.538l-.007-.012-.085-.146-.049-.086-.009-.014-.041-.071-.012-.022-.034-.061-.019-.033-.026-.046-.026-.044a.215.215 0 00-.014-.026 33.657 33.657 0 01-3.7-10.192 33.675 33.675 0 0110.864-1.9h.274m-10.647-12.6a33.286 33.286 0 0110.643-17.106 33.354 33.354 0 0111.588 22.808 41.882 41.882 0 00-8.852-1.529h-.009l-.5-.028h-.013l-.149-.008h-.022l-.326-.014H1348.461l-.317-.01h-.158.014H1346.123l-.316.01H1345.452l-.326.014h-.023l-.148.008h-.014l-.5.028h-.01a41.9 41.9 0 00-8.875 1.536 33.869 33.869 0 01.96-5.708m-9.567 9.257a42.014 42.014 0 00-21.8 35.924 42.015 42.015 0 0042.009-.912 42.014 42.014 0 0042.008.912 42.015 42.015 0 00-21.794-35.924 42.011 42.011 0 00-20.214-36.836 42.01 42.01 0 00-20.214 36.836m-52.2 7.822a33.772 33.772 0 01-.959 5.708 33.3 33.3 0 01-10.643 17.107 33.352 33.352 0 01-11.587-22.809 41.781 41.781 0 007.007 1.37c.218.024.439.046.659.065h.014c.162.015.327.029.49.042h.016l.147.011h.02l.326.024h.012l.148.009h.025l.147.009h.013l.321.019h.035l.125.007h.037l.147.007h.01l.16.007H1264.847l.158-.007h.014l.142-.007h.041l.121-.006h.038l.32-.017h.018l.141-.009h.03l.141-.009h.018l.323-.023h.026l.139-.011h.022l.326-.027.156-.014h.021l.151-.014h.008l.331-.033.157-.017h.013a41.923 41.923 0 007.026-1.377m-11.606-28.081a33.628 33.628 0 017.03 8.382l.008.011.082.139.013.024.082.139.047.082.022.039.024.041.033.059.01.017a33.653 33.653 0 013.789 10.357 33.653 33.653 0 01-10.864 1.9h-.7a33.372 33.372 0 01-10.7-1.909 33.353 33.353 0 013.834-10.461l.068-.119.085-.146.007-.013a33.654 33.654 0 017.122-8.537m12.8-6.824a33.3 33.3 0 0120.143.666 33.3 33.3 0 01-9.5 17.776 33.8 33.8 0 01-4.463 3.685 41.781 41.781 0 00-2.814-7.849q-.108-.228-.219-.454l-.067-.137-.011-.025c-.023-.045-.046-.09-.067-.135v-.008l-.147-.291-.012-.023a3.367 3.367 0 00-.062-.12l-.014-.029-.148-.284-.012-.023-.062-.118-.019-.035a3.622 3.622 0 00-.057-.107l-.019-.035c-.049-.093-.1-.185-.15-.278l-.019-.035-.056-.1-.024-.044-.058-.1-.019-.034-.076-.137-.015-.027-.061-.107-.026-.045-.056-.1-.024-.042-.077-.135-.091-.156-.009-.017-.082-.138-.013-.023-.079-.132-.013-.024-.078-.13-.017-.028-.077-.126-.014-.026-.08-.129-.014-.024c-.026-.044-.054-.087-.08-.132l-.011-.018-.083-.134-.012-.02-.085-.137-.008-.012-.09-.142-.006-.009q-.675-1.064-1.405-2.073l-.007-.009a3.93 3.93 0 00-.1-.136v-.008l-.1-.137v-.006l-.1-.141-.105-.141q-.371-.5-.756-.979l-.017-.023-.089-.111-.03-.036-.079-.1-.032-.039-.076-.094-.038-.046-.069-.083-.045-.054-.062-.075-.052-.064-.056-.066-.054-.065-.054-.064-.059-.069-.048-.058-.064-.075-.042-.048-.072-.083-.034-.04-.076-.088-.029-.033q-1.2-1.383-2.5-2.639a33.732 33.732 0 015.423-2.023m-41.841 11.232a33.353 33.353 0 01-3.9-10.569 33.3 33.3 0 0120.136-.664 33.729 33.729 0 015.423 2.023 41.791 41.791 0 00-4.5 5.124l-.009.01-.086.118-.016.022-.083.112-.02.027-.078.106-.026.035-.072.1c-.009.013-.02.027-.029.042a1.256 1.256 0 00-.069.1l-.032.046-.066.093-.036.051-.062.089-.038.055-.06.084-.042.061-.057.082-.043.062-.055.081-.048.07-.049.073-.1.142-.009.014-.088.132-.029.045-.068.1-.032.048-.064.1-.036.055-.06.093a1.113 1.113 0 00-.037.057l-.059.091-.037.057-.059.092-.036.057-.059.093-.035.056-.059.094-.035.057-.058.093-.036.059a5.67 5.67 0 01-.057.092l-.036.058-.058.095-.034.057-.058.1-.034.057-.059.1-.031.054-.062.1-.029.048-.067.115-.022.039-.09.155-.078.135-.023.042c-.018.031-.039.066-.056.1l-.025.043-.06.106-.018.031-.076.138-.014.024-.062.112-.024.044-.054.1-.023.041-.07.13v.007l-.075.138-.018.035-.056.1-.023.043a5.621 5.621 0 01-.057.108l-.015.028-.074.141-.006.012-.065.126-.02.039-.053.1-.02.04a5.11 5.11 0 00-.065.128v.009l-.071.142a.3.3 0 01-.015.029l-.055.112-.019.039a3.605 3.605 0 00-.053.108l-.017.034c-.047.094-.091.187-.137.281l-.017.035a5.387 5.387 0 01-.052.109l-.017.036-.06.128-.007.012c-.022.048-.045.1-.067.145l-.01.019-.057.123-.015.034-.054.119-.011.024-.131.291-.011.024-.053.121c0 .01-.01.02-.013.03l-.058.131v.011l-.066.151-.061.141-.01.024-.055.13-.008.017-.125.3v.012l-.056.136-.009.02-.056.138v.01l-.12.3v.011l-.056.142v.01q-.09.229-.176.46a41.74 41.74 0 00-1.432 4.588 33.53 33.53 0 01-10.063-10.871m29.04-14.889a42.012 42.012 0 00-42.007-.912 42.01 42.01 0 0021.794 35.924 42.013 42.013 0 0020.214 36.836 42.014 42.014 0 0020.214-36.836 42.011 42.011 0 0021.793-35.924 42 42 0 00-42.008.912M1420.531 414a33.968 33.968 0 01-.959-5.708 41.925 41.925 0 007.028 1.377h.011l.159.017.332.033h.006l.153.014h.021l.156.014.327.027h.021l.14.011h.026l.323.023h.017l.142.009h.028l.143.009h.017l.32.017h.038l.121.006h.04l.143.007h.014l.158.007h3.431l.158-.007h.015l.141-.007h.041l.12-.006h.039l.153-.008.164-.009h.02l.14-.009h.031l.138-.009h.021l.32-.023h.029l.135-.01h.027l.157-.013.165-.014h.01l.149-.013h.026l.143-.014h.015l.326-.032h.011l.147-.015h.022c.163-.017.324-.036.486-.055h.008l.161-.02a41.856 41.856 0 006.342-1.293 33.35 33.35 0 01-11.588 22.809A33.305 33.305 0 011420.531 414m10.648-33.789a33.653 33.653 0 017.121 8.537l.007.013c.029.048.057.1.084.146l.069.119a33.35 33.35 0 013.833 10.461 33.372 33.372 0 01-10.7 1.909h-.7a33.654 33.654 0 01-10.865-1.9 33.686 33.686 0 013.835-10.439l.008-.012.036-.065.046-.08.082-.139.013-.024a5.04 5.04 0 01.082-.139l.007-.01a33.627 33.627 0 017.031-8.383m-23.449 11.617a33.3 33.3 0 01-9.494-17.776 33.3 33.3 0 0120.142-.666 33.728 33.728 0 015.423 2.023 41.893 41.893 0 00-4.5 5.122l-.01.013-.085.116-.018.024-.081.11-.022.029-.076.1-.027.037-.07.1-.031.045-.068.094-.034.048-.063.09-.038.054a2.658 2.658 0 00-.102.144l-.058.082a.923.923 0 01-.045.064l-.054.079-.046.067-.052.075-.053.078-.045.065-.194.289-.026.039-.072.109-.028.044-.067.1-.033.051-.063.1-.035.054-.061.095-.035.054-.06.095a2.732 2.732 0 00-.036.056l-.059.093-.035.056-.059.094-.036.057-.058.093-.036.059c-.013.02-.037.062-.057.092l-.035.058-.058.095-.034.057-.058.1-.034.057-.059.1-.032.054-.062.1-.029.048-.067.115-.023.039c-.029.051-.06.1-.089.155l-.078.135-.024.042-.056.1-.024.043-.06.106-.018.031-.077.138-.013.024-.062.113-.022.041c-.02.035-.038.069-.057.1l-.02.035-.151.28-.014.026-.062.116-.017.032-.065.124-.008.015-.15.288c0 .008-.008.016-.012.024a4.767 4.767 0 00-.063.122l-.011.024c-.049.1-.1.2-.148.293l-.071.143-.007.014a41.907 41.907 0 00-3.105 8.451 33.822 33.822 0 01-4.465-3.685m36.249-18.441a33.3 33.3 0 0120.136.664 33.345 33.345 0 01-13.958 21.44 41.952 41.952 0 00-3.1-8.426l-.009-.019-.071-.142-.149-.295a.107.107 0 01-.009-.019l-.065-.124-.013-.027-.148-.284-.012-.023-.062-.118-.019-.035a3.622 3.622 0 00-.057-.107l-.019-.035c-.049-.093-.1-.185-.15-.278l-.019-.035-.056-.1-.024-.044-.058-.1-.019-.034-.077-.137c0-.009-.009-.018-.015-.027l-.061-.107c-.009-.015-.016-.03-.026-.045-.017-.031-.037-.065-.055-.1l-.024-.042-.078-.135c-.027-.045-.06-.1-.089-.155l-.018-.03-.073-.123c-.008-.013-.014-.026-.023-.039l-.067-.115-.027-.045-.064-.107-.03-.05-.062-.1-.029-.048-.063-.1-.031-.049-.063-.1-.029-.047-.065-.1c-.009-.017-.02-.033-.03-.049a4.358 4.358 0 00-.064-.1l-.028-.046-.066-.1-.03-.046-.069-.109-.024-.038-.074-.114-.023-.035a5.22 5.22 0 00-.081-.123.181.181 0 00-.014-.023l-.091-.138-.006-.01q-.2-.3-.4-.594l-.007-.011-.092-.134-.015-.022-.083-.12-.026-.037-.074-.106-.029-.041-.072-.1-.029-.041-.073-.1-.031-.044-.068-.094-.037-.051-.067-.092-.036-.049-.067-.092-.035-.047-.071-.1-.032-.044-.069-.092-.037-.05-.069-.092-.034-.046-.074-.1-.031-.041-.076-.1-.03-.04-.07-.09-.091-.118-.048-.063-.057-.073-.049-.063-.062-.078-.044-.055-.065-.081-.043-.053-.064-.081-.043-.053-.062-.077-.046-.056-.065-.081-.04-.048-.071-.086-.035-.042-.076-.092-.03-.037c-.027-.031-.052-.063-.079-.093l-.028-.034-.083-.1-.02-.023-.09-.106-.014-.017q-1.306-1.526-2.734-2.905a33.832 33.832 0 015.424-2.023m-12.8-3.656a42.012 42.012 0 00-42.007-.912 42.01 42.01 0 0021.794 35.924 42.012 42.012 0 0020.214 36.836 42.013 42.013 0 0020.214-36.836 42.015 42.015 0 0021.794-35.924 42.007 42.007 0 00-42.009.912"
    transform="translate(-1137.123 -363.632)"
  ></path>
</svg>