<svg
  xmlns="http://www.w3.org/2000/svg"
  width="393.534"
  height="91.274"
  viewBox="0 0 393.534 91.274"
>
  <path
    fill="#5b8847"
    d="M1164.09 417.6a49.187 49.187 0 004.941 12.34l.006.009.088.154.014.023.094.165.1.178.059.1.044.074.067.113.037.063.073.122.031.051c.025.043.051.087.078.129l.025.043.081.134.025.039.083.137.021.033c.029.048.059.1.089.143l.015.027.09.144.017.026.1.152.006.009a49.151 49.151 0 007.4 9.1 39.732 39.732 0 01-16.945 3.827 38.81 38.81 0 01-12.984-2.235m60.8-25.134a39.624 39.624 0 015.228 4.315 39 39 0 0111.119 20.817 39 39 0 01-23.587.779 39.61 39.61 0 01-6.35-2.369 48.926 48.926 0 005.274-6l.01-.013.1-.137.02-.027.093-.128.027-.037a5.342 5.342 0 00.12-.165l.084-.115.035-.049.079-.111c.013-.019.028-.038.04-.057.025-.035.051-.071.075-.107l.043-.061.072-.1.047-.067.069-.1.05-.072.065-.094.052-.077.062-.091.06-.088.054-.079.1-.148a.763.763 0 00.031-.047c.033-.048.065-.1.1-.145l.028-.042.085-.129.037-.056.077-.117.038-.058.076-.117.038-.059.073-.113.041-.064.07-.11c.015-.021.028-.043.042-.065l.069-.109.041-.067c.023-.036.047-.073.069-.11l.041-.064.07-.114.039-.061.07-.114.039-.063.07-.114c.012-.021.025-.043.039-.064l.069-.114.038-.063.072-.12.035-.058.074-.125.032-.054.08-.138c.008-.013.018-.029.024-.042l.105-.181.091-.158.028-.049.063-.112.031-.056.067-.117.023-.042c.03-.052.059-.1.088-.158l.022-.039.067-.121.03-.054.062-.112.027-.049.081-.151.006-.009.087-.162.024-.043.062-.119.028-.051.064-.123.021-.039.086-.164.008-.014.076-.145.025-.048.062-.121.022-.044.076-.149.007-.013c.028-.054.057-.111.083-.167l.017-.032.066-.132.023-.046.062-.129.018-.036.162-.333.018-.037.062-.131.02-.041.069-.147.009-.019.079-.169.012-.025.065-.141.019-.041.06-.133.017-.034.152-.336.014-.034.06-.134.018-.041c.022-.048.043-.1.064-.144l.009-.022.075-.174.069-.16.016-.04.058-.134.015-.036c.048-.112.1-.228.143-.341l.011-.027c.019-.047.039-.1.059-.143a.318.318 0 01.014-.036l.062-.153.006-.016.139-.345.012-.033.057-.143.012-.03.133-.346.008-.021.058-.152.011-.03c.019-.051.039-.1.057-.152l.009-.021.129-.351.008-.023.056-.153.009-.024c.063-.175.125-.352.185-.527l.009-.026c.019-.054.037-.105.054-.16l.006-.014.12-.357v-.013l.053-.161.009-.027.055-.171.115-.361.006-.019.05-.162.006-.017.11-.36v-.012l.05-.165.006-.02.05-.169v-.009c.036-.12.07-.24.1-.36l.006-.018c.014-.054.031-.11.046-.164l.006-.017.1-.364.048-.174v-.02l.047-.174c.033-.124.064-.246.1-.37.016-.058.03-.119.044-.177v-.013l.015-.057m-22.229-6.9h.32a39.4 39.4 0 0112.722 2.224 39.4 39.4 0 01-4.435 12.127l-.013.023-.038.066-.028.049-.026.046-.055.1-.1.163a.194.194 0 01-.016.027l-.1.165-.007.011a39.412 39.412 0 01-8.233 9.817 39.378 39.378 0 01-8.234-9.818l-.006-.01c-.033-.055-.065-.11-.1-.165l-.016-.027-.1-.163-.074-.13-.012-.021a39.062 39.062 0 01-4.485-12.243 39.062 39.062 0 0112.527-2.235h.493m-8.432-24.645a39.062 39.062 0 018.438-10.139 38.994 38.994 0 0112.463 20.032 39.557 39.557 0 011.123 6.684 49.148 49.148 0 00-10.386-1.8h-.024l-.183-.011-.385-.022h-.026l-.163-.008h-.033l-.377-.017h-.027l-.158-.006h-.236l-.368-.011h-2.422l-.371.011H1184.489l-.165.006h-.019l-.382.017h-.026l-.174.009h-.016c-.194.01-.391.021-.584.033h-.009a49.022 49.022 0 00-10.366 1.791 39.267 39.267 0 015.132-16.57m-15.24 20.734a49.2 49.2 0 00-25.52 42.068 49.2 49.2 0 0049.192-1.069 49.2 49.2 0 0049.192 1.069 49.2 49.2 0 00-25.522-42.068 49.193 49.193 0 00-23.671-43.135 49.2 49.2 0 00-23.67 43.135m242.665 10.826a39.047 39.047 0 0116.346 25.106 38.984 38.984 0 01-23.579.777 39.665 39.665 0 01-6.351-2.369 48.834 48.834 0 005.274-6l.01-.013c.034-.046.068-.09.1-.137a.223.223 0 00.02-.027l.094-.128.027-.037.088-.121a.707.707 0 00.032-.044c.028-.037.056-.078.083-.115l.035-.049.08-.111.04-.057.076-.107.043-.061c.025-.033.049-.069.072-.1l.047-.067.069-.1.05-.072.064-.094.053-.077.062-.091.06-.088.053-.079.1-.148.031-.047.1-.145.028-.042.085-.129.037-.056.077-.117.038-.058.075-.117.038-.059.073-.113.041-.064.07-.11.041-.065.07-.109.041-.067.069-.11.04-.064.071-.114a.774.774 0 00.038-.061l.071-.114.039-.063.07-.114.038-.064.07-.114c.012-.021.024-.042.038-.063l.072-.12.034-.058.073-.125.032-.054.081-.138.024-.042c.035-.06.07-.12.1-.181s.062-.107.092-.159l.026-.044.068-.12.027-.046.077-.137.013-.023.093-.167.007-.013.083-.151.019-.033.078-.141.012-.023.184-.342v-.006l.088-.164.008-.014a49.117 49.117 0 004.266-11.11m-60.8 25.1a39 39 0 0111.119-20.817 39.611 39.611 0 015.227-4.314 49 49 0 003.641 9.9c.086.174.173.35.262.522l.012.024.076.149.012.022.177.341.008.014.078.148.02.037c.024.047.05.1.075.142l.012.022.178.33.023.041.067.123.026.046.077.139.012.021.09.161.023.041.068.121.028.05.065.114.028.049.091.158.1.18.029.049.078.132.031.054.073.124.039.064.068.113.04.067.067.111.042.069.067.109.041.068.068.109.041.068.07.112.038.061c.024.038.049.077.072.116l.039.061.073.117.036.057.077.119.036.057.079.123a.787.787 0 01.031.048l.086.131.028.042.1.148.016.023c.035.055.072.11.109.164l.006.009.351.52.014.021.1.145.029.042.09.129.03.043.084.121.04.057.078.11.043.061.073.1.047.064c.024.036.05.07.075.1s.03.042.043.061l.072.1.051.07.069.093.052.072.067.089.055.076c.019.025.043.059.067.089l.054.073.066.087.056.077.062.081.062.082.052.068.07.092.059.076.175.228.008.009.1.129.021.027.1.121.028.034.092.117.032.04.09.112.034.043.094.115.029.036.1.118.03.036.1.118.029.034.1.119.027.031.1.125.017.019.111.132.013.014.116.139q1.534 1.8 3.212 3.415a39.731 39.731 0 01-16.945 3.827 38.829 38.829 0 01-12.992-2.237m38.577-32.027h.494a39.061 39.061 0 0112.525 2.235 39.086 39.086 0 01-4.247 11.821v.006l-.075.134-.009.018-.068.12-.009.016a7.842 7.842 0 00-.071.124l-.017.03-.073.125a5.051 5.051 0 01-.1.171l-.009.014a39.372 39.372 0 01-8.339 10 39.35 39.35 0 01-8.34-10l-.008-.014-.1-.171-.058-.1-.01-.017-.048-.083-.015-.026-.04-.071-.022-.039-.03-.054-.03-.051a.26.26 0 00-.017-.03 39.415 39.415 0 01-4.327-11.935 39.434 39.434 0 0112.722-2.224h.321m-12.468-14.752a38.978 38.978 0 0112.463-20.032 39.058 39.058 0 0113.57 26.708 49.045 49.045 0 00-10.366-1.791h-.011c-.193-.012-.39-.023-.583-.033h-.015l-.174-.009h-.025l-.382-.017h-.02l-.164-.006h-.232l-.371-.011h-2.439l-.37.011h-.232l-.164.006h-.02l-.382.017h-.027l-.173.009h-.017c-.193.01-.389.021-.582.033h-.012a49.066 49.066 0 00-10.393 1.8 39.659 39.659 0 011.124-6.684m-11.2 10.84a49.2 49.2 0 00-25.522 42.068 49.2 49.2 0 0049.193-1.068 49.2 49.2 0 0049.192 1.068 49.2 49.2 0 00-25.521-42.068 49.2 49.2 0 00-23.67-43.135 49.193 49.193 0 00-23.671 43.135m-61.122 9.159a39.551 39.551 0 01-1.123 6.684 39 39 0 01-12.464 20.033 39.055 39.055 0 01-13.568-26.71 48.922 48.922 0 008.205 1.6h.006c.255.028.514.053.771.077h.017c.19.018.383.034.574.049h.019l.172.013h.023l.382.028h.014l.173.011h.029l.172.011h.016l.376.022h.041l.146.008h.043l.172.008h.012l.188.008h.038l.145.006h.235l.189.006.181.006h2.444l.178-.006.188-.006h.238l.142-.006h.041l.185-.008h.016l.167-.008h.048l.142-.007h.044l.374-.02h.021l.165-.01h.035l.165-.011h.021l.378-.027h.03l.163-.013h.026l.382-.032.183-.017h.024l.177-.017h.009l.387-.039.184-.02h.016a49.092 49.092 0 008.228-1.612m-13.583-32.868a39.38 39.38 0 018.232 9.815l.009.013.1.163.016.028.1.163c.018.032.037.064.055.1l.026.045.028.048.039.069.011.02a39.408 39.408 0 014.437 12.128 39.408 39.408 0 01-12.722 2.223h-.815a39.078 39.078 0 01-12.525-2.235 39.058 39.058 0 014.489-12.25l.08-.14.1-.171.008-.016a39.407 39.407 0 018.34-10m14.989-7.991a39 39 0 0123.587.779 38.991 38.991 0 01-11.119 20.816 39.58 39.58 0 01-5.226 4.315 48.933 48.933 0 00-3.3-9.191l-.256-.532a5.919 5.919 0 00-.079-.16l-.013-.029-.079-.158v-.009l-.172-.341-.015-.027c-.023-.048-.048-.094-.072-.141l-.017-.034-.173-.332-.014-.027-.072-.138-.022-.041a3 3 0 00-.067-.125l-.022-.041-.175-.325-.022-.041a4.54 4.54 0 00-.066-.119l-.028-.051-.068-.122-.022-.04-.089-.16c-.007-.01-.012-.021-.018-.031l-.071-.125-.03-.053-.066-.113-.028-.049-.09-.158-.107-.183-.011-.02c-.032-.053-.063-.108-.1-.162l-.016-.027c-.031-.051-.061-.1-.092-.154l-.015-.028-.091-.152-.02-.033-.09-.148-.017-.03-.093-.151-.017-.028c-.031-.051-.063-.1-.094-.154l-.013-.021-.1-.157-.014-.023-.1-.16-.009-.014-.106-.167-.007-.01q-.791-1.246-1.646-2.427l-.008-.011-.116-.159-.005-.009-.118-.16v-.007l-.122-.165-.123-.165q-.435-.581-.885-1.147l-.02-.027-.1-.13-.035-.042-.092-.115-.038-.046-.089-.11-.044-.054a6.726 6.726 0 00-.081-.1l-.052-.063-.072-.088-.061-.074-.065-.078-.063-.077-.063-.074-.069-.081-.057-.068-.074-.088-.049-.057c-.028-.033-.057-.066-.084-.1l-.04-.047-.089-.1-.034-.039q-1.408-1.619-2.932-3.09a39.5 39.5 0 016.35-2.369m-49 13.153a39.059 39.059 0 01-4.561-12.376 38.991 38.991 0 0123.579-.777 39.5 39.5 0 016.35 2.369 48.936 48.936 0 00-5.274 6l-.01.012c-.033.047-.068.092-.1.138l-.019.026-.1.131-.023.032-.091.124-.03.041-.084.118-.034.049c-.028.038-.055.074-.081.112l-.038.053-.078.109-.042.06-.073.1-.044.064-.07.1-.049.071-.067.1-.05.072-.064.094-.057.082-.058.085-.113.167-.01.017-.1.154-.035.052-.08.12-.038.057-.074.114-.042.064-.07.109c-.016.022-.029.043-.043.067s-.047.071-.069.107l-.043.067-.069.108-.042.067-.069.109-.041.066c-.023.037-.047.073-.069.11l-.041.067-.068.109c-.016.023-.028.046-.042.069a6.717 6.717 0 01-.109.176 2.536 2.536 0 01-.068.111l-.04.067-.068.112-.04.067a2.656 2.656 0 01-.069.114l-.037.063c-.024.04-.049.081-.072.122l-.034.057-.079.134-.025.045-.106.181-.091.158-.027.049-.066.114-.029.05-.07.124-.021.037-.089.161-.017.028-.072.131-.028.051-.063.115-.027.048-.082.152v.008l-.088.162c-.007.014-.015.027-.021.041l-.065.122-.027.05a5.277 5.277 0 01-.067.127l-.018.033-.087.165-.007.014-.077.148-.023.046-.062.121-.023.047-.077.15-.005.01-.083.167a.329.329 0 01-.018.034l-.064.131c-.008.016-.016.03-.022.046a3.749 3.749 0 00-.062.127l-.02.04-.16.329-.02.041-.061.128-.02.042-.07.15-.008.014-.079.17-.011.022c-.022.049-.044.1-.066.144l-.018.04-.063.139-.013.028c-.052.114-.1.227-.153.341l-.013.028-.062.142a11.503 11.503 0 00-.084.189l-.005.013-.077.177-.071.165-.011.028-.064.152-.009.02-.146.35-.006.014-.065.159-.01.023-.065.162v.011l-.141.354-.006.013-.065.167v.012q-.1.268-.206.539v.006a48.844 48.844 0 00-1.677 5.373 39.264 39.264 0 01-11.784-12.73m33.975-17.446a49.2 49.2 0 00-49.191-1.068 49.2 49.2 0 0025.521 42.068 49.2 49.2 0 0023.67 43.136 49.2 49.2 0 0023.671-43.136 49.2 49.2 0 0025.52-42.068 49.188 49.188 0 00-49.192 1.068M1469 422.61a39.785 39.785 0 01-1.123-6.684 49.093 49.093 0 008.23 1.612h.013l.186.02.389.039h.006l.179.017h.024l.183.017.383.032h.025l.164.013h.03l.378.027h.02l.167.011h.033l.168.01h.02l.374.02h.044l.142.007h.047l.168.008h.017l.185.008h.04l.143.006h.237l.188.006.179.006h2.444l.178-.006.188-.006h.237l.142-.006h.041l.186-.008h.018l.165-.008h.048l.141-.007h.046l.179-.009.192-.011h.023l.163-.01h.036l.162-.011h.024l.374-.027h.034l.158-.012h.031l.184-.016c.065-.006.128-.01.193-.017h.011l.174-.016h.031l.168-.017h.018l.382-.038h.013l.172-.018h.025c.191-.02.38-.042.57-.064h.009l.189-.023a49.009 49.009 0 007.427-1.515 39.052 39.052 0 01-13.569 26.71A39 39 0 011469 422.61m12.469-39.567a39.408 39.408 0 018.339 10l.009.016.1.171c.033.058.055.093.081.14a39.054 39.054 0 014.489 12.25 39.078 39.078 0 01-12.525 2.235h-.815a39.409 39.409 0 01-12.722-2.223 39.447 39.447 0 014.49-12.224l.009-.014.042-.076a2.23 2.23 0 00.054-.093c.031-.054.063-.109.1-.163l.015-.028c.031-.054.063-.109.1-.163l.008-.012a39.377 39.377 0 018.233-9.817m-27.459 13.6a39 39 0 01-11.118-20.816 39 39 0 0123.587-.779 39.493 39.493 0 016.35 2.369 49.066 49.066 0 00-5.273 6l-.011.016-.1.135a.255.255 0 00-.021.028l-.094.129-.025.034-.089.122-.032.043-.082.114-.037.052-.08.11-.04.057-.074.105-.044.063-.071.1a2.64 2.64 0 01-.048.068l-.068.1-.052.076-.063.092-.053.079-.061.088-.062.091-.052.077c-.075.113-.152.225-.227.339l-.03.046-.084.128-.033.051-.079.12-.039.06-.073.112-.041.063-.071.111-.041.063-.07.111c-.015.021-.028.043-.042.066l-.069.109-.041.066c-.023.037-.047.073-.069.11l-.042.067-.068.109-.042.069c-.015.023-.043.072-.067.108l-.041.068a2.536 2.536 0 01-.068.111l-.04.067-.068.112-.04.067-.069.114c-.012.021-.024.042-.038.063l-.072.122-.033.057-.079.134-.027.045c-.034.06-.07.12-.1.181l-.091.158-.028.049-.066.114-.028.05-.07.124-.021.037-.09.161-.016.028-.073.132-.026.048-.067.122-.023.041-.177.328-.017.03-.072.135-.02.038-.077.146-.009.018-.176.338c-.006.009-.01.019-.015.028-.026.048-.05.1-.074.143l-.013.028a22 22 0 00-.173.343l-.083.168-.009.017a49.071 49.071 0 00-3.637 9.9 39.607 39.607 0 01-5.229-4.315m42.448-21.6a38.991 38.991 0 0123.579.777 39.048 39.048 0 01-16.345 25.106 49.126 49.126 0 00-3.629-9.867l-.011-.022-.083-.167-.174-.345a.114.114 0 01-.011-.022l-.076-.145-.016-.031-.173-.333-.014-.027-.072-.138-.022-.041a3 3 0 00-.067-.125l-.022-.041c-.057-.109-.117-.216-.175-.325a.41.41 0 01-.022-.041l-.065-.119-.028-.051-.068-.122a.397.397 0 01-.022-.04l-.09-.16c-.006-.01-.011-.021-.018-.031l-.071-.125c-.01-.018-.019-.036-.03-.053a4.125 4.125 0 00-.064-.113l-.028-.049-.091-.158a3.039 3.039 0 01-.1-.182l-.021-.036-.085-.144a1.1 1.1 0 00-.027-.046l-.079-.134-.031-.052-.075-.126c-.011-.02-.024-.039-.036-.059l-.072-.12-.034-.057-.073-.122-.036-.058-.073-.12-.034-.056-.076-.121-.035-.058-.075-.12-.033-.054-.078-.122a24.649 24.649 0 00-.116-.181l-.028-.044-.086-.133-.027-.041c-.031-.049-.062-.1-.094-.144a.218.218 0 00-.017-.027l-.106-.162-.007-.011q-.232-.35-.468-.7l-.009-.013-.108-.157-.018-.026-.1-.141-.03-.043-.087-.124-.034-.048-.084-.12-.034-.048-.085-.12-.036-.051-.079-.11a3.118 3.118 0 00-.043-.06l-.078-.108-.042-.058-.079-.108-.041-.056-.083-.113-.038-.051-.081-.108-.043-.059a4.34 4.34 0 00-.081-.108l-.04-.053-.087-.114-.037-.048-.089-.117-.036-.047c-.027-.034-.054-.071-.082-.105s-.071-.092-.107-.138l-.057-.073-.067-.085-.058-.073-.072-.091-.051-.064-.076-.094-.05-.062-.075-.094-.05-.062a5.764 5.764 0 00-.073-.09l-.054-.065-.076-.094-.047-.057-.083-.1-.041-.049a8.46 8.46 0 00-.089-.108l-.035-.043-.092-.109-.033-.04-.1-.117-.023-.027-.105-.124-.017-.02q-1.529-1.787-3.2-3.4a39.618 39.618 0 016.351-2.369m-14.991-4.282a49.2 49.2 0 00-49.19-1.068 49.194 49.194 0 0025.506 42.067 49.2 49.2 0 0023.67 43.136 49.2 49.2 0 0023.67-43.136 49.2 49.2 0 0025.521-42.068 49.19 49.19 0 00-49.193 1.068"
    transform="translate(-1137.123 -363.632)"
  ></path>
</svg>