<svg
  xmlns="http://www.w3.org/2000/svg"
  width="336.063"
  height="77.945"
  viewBox="0 0 336.063 77.945"
>
  <path
    fill="#36a3a3"
    d="M107.11 420.591a33.551 33.551 0 0110.063-10.871 41.922 41.922 0 003.644 9.489v.009c.077.146.156.294.236.439l.01.02.067.122.014.026c.051.094.1.189.156.283l.014.025.064.114c.007.012.013.025.021.036l.059.1.022.037.078.137.089.154.025.042.066.113.027.046.064.106.032.055c.02.032.039.065.058.1s.023.038.034.057l.058.095.035.059.057.093.035.058.058.093.036.058c.019.032.039.064.059.1l.032.052c.021.032.042.065.062.1l.033.052.063.1.031.048.064.1.031.048.067.105.027.041.073.112.024.036.082.126.013.02c.03.047.062.094.093.14v.008q.149.223.3.444l.012.018.085.124.025.036.077.11.026.037.072.1c.011.016.024.032.034.048l.066.094.038.052.062.088.04.055.064.089c.011.017.026.036.038.052l.062.085.043.06.059.08.045.062.057.076.047.064.057.076.046.063.056.074.048.065.053.069.053.07.045.058.06.079.05.065.151.194.006.008.086.11.018.023.082.1.024.029.08.1.027.034.077.1.029.037.082.1.024.03.083.1.025.03.082.1.025.029.084.1.022.027.089.107.014.016.095.113.011.012.1.118q1.311 1.535 2.744 2.917a33.94 33.94 0 01-14.471 3.268 33.146 33.146 0 01-11.088-1.909m51.92-21.462a33.877 33.877 0 014.464 3.684 33.309 33.309 0 019.5 17.777 33.3 33.3 0 01-20.143.666 33.825 33.825 0 01-5.423-2.023 41.784 41.784 0 004.5-5.124l.009-.011.086-.117.017-.023.08-.109.023-.031.075-.1c.009-.012.019-.025.027-.038.024-.031.048-.066.071-.1.01-.014.021-.027.03-.042l.068-.095c.011-.016.024-.032.034-.048l.064-.091.037-.052.062-.087.04-.057.059-.083.043-.062.056-.081.045-.065.053-.078.051-.075.046-.067.084-.126.027-.04.083-.124.024-.036.073-.11.031-.047.065-.1.032-.049.064-.1.032-.05.063-.1.035-.055.06-.094.036-.056.059-.093.035-.057.059-.094.035-.055.06-.1.033-.052.06-.1.033-.054.06-.1.033-.055.059-.1.032-.054.062-.1.029-.049.063-.107.028-.046c.024-.039.046-.079.069-.118a.67.67 0 00.021-.036l.09-.155.078-.135.023-.042.056-.1.026-.045c.019-.034.039-.07.059-.1l.017-.032.077-.137c0-.009.01-.019.016-.028l.06-.109.023-.042.057-.1.019-.036c.051-.093.1-.186.152-.279l.014-.028.061-.113.018-.034.063-.119.011-.02c.05-.1.1-.192.149-.287l.012-.024.064-.125.01-.019c.075-.148.149-.294.222-.443v-.009a41.875 41.875 0 003.107-8.453m-18.984-5.889h.274a33.675 33.675 0 0110.864 1.9 33.63 33.63 0 01-3.7 10.2l-.01.017a2.162 2.162 0 01-.027.049l-.025.045-.019.034-.033.058-.014.024-.04.071-.009.014-.049.086c-.028.048-.056.1-.084.144l-.009.015a33.614 33.614 0 01-7.107 8.537 33.622 33.622 0 01-7.121-8.538l-.008-.012-.085-.146-.062-.108-.014-.025-.061-.107-.007-.011-.058-.1-.009-.016-.064-.116a33.394 33.394 0 01-3.628-10.1 33.346 33.346 0 0110.7-1.909h.422m-7.2-21.046a33.377 33.377 0 017.2-8.658A33.292 33.292 0 01146.8 391.21a33.859 33.859 0 01.96 5.708 41.9 41.9 0 00-8.875-1.536h-.01l-.5-.028h-.013l-.148-.008h-.023l-.326-.014H137.51l-.317-.01H135.111l-.317.01h-.355l-.327.014h-.021l-.149.008h-.013l-.5.028h-.008a41.869 41.869 0 00-8.853 1.529 33.522 33.522 0 014.384-14.15m-13.014 17.706a42.012 42.012 0 00-21.793 35.924 42.014 42.014 0 0042.008-.912 42.012 42.012 0 0042.007.912 42.01 42.01 0 00-21.794-35.924 42.011 42.011 0 00-20.214-36.836 42.011 42.011 0 00-20.214 36.836m207.224 9.252a33.344 33.344 0 0113.958 21.44 33.294 33.294 0 01-20.137.664 33.825 33.825 0 01-5.423-2.023 41.923 41.923 0 006.324-7.774l.084-.135.01-.016.078-.126a.205.205 0 00.015-.024l.075-.121.017-.027.072-.117.022-.037.067-.11.026-.043.063-.105.029-.048.06-.1.034-.057.054-.092.045-.076.045-.076c.029-.05.059-.1.087-.152s.053-.091.079-.136l.021-.038.059-.1.023-.039.065-.117a.213.213 0 01.011-.02l.08-.142.006-.011.071-.129.016-.028.065-.12.011-.02c.052-.1.106-.2.157-.292l.075-.14.007-.012a41.958 41.958 0 003.643-9.488m-51.921 21.438a33.308 33.308 0 019.494-17.777 33.9 33.9 0 014.471-3.693c0 .017.008.033.012.05v.008l.038.15v.007c.027.105.053.211.081.315l.04.152v.011c.042.156.084.31.128.466v.008l.042.148v.009q.065.232.135.462v.016c.046.156.092.307.14.463v.007l.046.146v.012c.032.1.065.206.1.308l.047.147.006.017.046.138v.014l.1.3v.012l.048.141v.013l.16.455.007.018.049.137v.013l.113.305.054.143.008.021q.084.223.172.447l.009.024.049.124.01.026c.039.1.08.2.118.3l.006.014.054.133.01.024.054.133.006.013.124.3.009.023.053.126.01.024.061.14.064.15.007.014.056.128.014.033.052.118.012.027c.044.1.086.192.131.29l.011.025.054.118a.34.34 0 00.015.033l.057.123.01.02c.022.048.045.1.067.145l.007.012c.019.043.041.086.061.129l.015.033.053.111.017.035.137.283.014.028.057.116.016.032.059.117.012.027c.025.047.048.095.072.143v.007l.066.131.02.04.053.1.019.037.066.127.006.011.074.142.014.027.058.111a.533.533 0 01.022.041l.059.11.015.027.076.142.072.133.022.04.055.1.023.042.065.118.01.018.076.137.021.035.058.1.024.043.056.1.024.042.078.135c.029.052.06.1.089.154l.025.042.065.113.028.046.063.106.033.055.058.1.034.057.057.095.036.059.057.093.035.058.057.093.036.058c.012.02.04.064.059.1l.033.052.062.1.033.052.063.1.03.048.065.1.031.048.067.105.027.041.073.112a.45.45 0 00.024.036l.082.126.013.02.092.14.006.008q.148.223.3.444l.012.018.085.124.025.036.076.11.027.037.072.1.034.048.066.094.037.052.063.088.04.055.064.089.038.052.062.085.044.06.059.08.045.062.057.076.046.064.057.076.047.063.055.074.049.065.052.069.054.07.045.058.06.079.05.065.15.194.007.008.086.11.017.023.082.1.025.029.079.1.027.034.077.1.029.037.081.1.025.03.082.1.026.03.083.1.025.029.083.1.023.027.089.107.014.016.095.113.01.012.1.118q1.31 1.535 2.743 2.917a33.929 33.929 0 01-14.47 3.268 33.159 33.159 0 01-11.095-1.911m32.943-27.35h.421a33.356 33.356 0 0110.7 1.909 33.372 33.372 0 01-3.627 10.094l-.064.115-.008.015-.058.1-.008.013-.061.106-.014.026-.063.107c-.027.046-.053.093-.081.139l-.013.023-.083.141-.006.009a33.658 33.658 0 01-6.988 8.403 33.632 33.632 0 01-7.033-8.384v-.009l-.083-.141a.18.18 0 01-.013-.023l-.082-.139-.047-.082-.022-.039a.66.66 0 00-.025-.042l-.031-.056-.011-.019a33.651 33.651 0 01-3.787-10.357 33.67 33.67 0 0110.864-1.9h.274m-10.648-12.6a33.292 33.292 0 0110.639-17.109 33.348 33.348 0 0111.589 22.808 41.881 41.881 0 00-8.852-1.529h-.009l-.5-.028h-.013l-.149-.008h-.022l-.326-.014H305.542l-.317-.01H303.142l-.318.01h-.354l-.328.014h-.018l-.154.008h-.009c-.169.009-.334.018-.5.029a41.927 41.927 0 00-8.878 1.536 33.857 33.857 0 01.959-5.708m-9.566 9.257a42.014 42.014 0 00-21.794 35.924 42.013 42.013 0 0042.009-.913 42.01 42.01 0 0042.007.913 42.013 42.013 0 00-21.798-35.922 42.013 42.013 0 00-20.214-36.836 42.012 42.012 0 00-20.215 36.836m-220.228 7.822a33.876 33.876 0 01-.96 5.708A33.292 33.292 0 0152.141 431.1a33.358 33.358 0 01-11.588-22.8 41.832 41.832 0 006.342 1.293l.161.02h.007c.162.019.325.038.488.055h.021l.147.015h.011l.327.032h.013l.144.014h.027l.149.013h.01l.166.014.156.013h.026l.136.01h.029l.32.023h.021l.138.009h.031l.139.009h.02l.163.009.154.008h.039l.12.006h.041l.141.007h.015l.158.007h3.439l.158-.007h.014l.143-.007h.04l.121-.006h.038l.32-.017h.018l.141-.009h.029l.141-.009h.018l.322-.023h.025l.14-.011h.022l.327-.027.156-.014h.021l.152-.014h.007l.332-.033.159-.017h.011a41.927 41.927 0 007.028-1.377m-11.599-28.078a33.613 33.613 0 017.121 8.537l.009.015c.028.047.056.1.084.144l.046.08.037.065.008.012a33.683 33.683 0 013.833 10.439 33.653 33.653 0 01-10.864 1.9h-.7a33.372 33.372 0 01-10.7-1.909 33.364 33.364 0 013.628-10.1l.064-.116.008-.014.058-.1.008-.014.061-.106.014-.026.062-.107.085-.146.008-.013a33.649 33.649 0 017.121-8.537m12.8-6.824a33.3 33.3 0 0120.143.666 33.3 33.3 0 01-9.5 17.776 33.813 33.813 0 01-4.464 3.685 41.882 41.882 0 00-3.1-8.448l-.009-.019-.07-.142c-.049-.1-.1-.2-.149-.295l-.009-.019-.064-.124-.014-.027-.148-.284-.011-.023-.063-.118-.019-.035a3.622 3.622 0 00-.057-.107l-.018-.035-.151-.278-.019-.035-.056-.1-.024-.044-.058-.1-.019-.034-.076-.137-.015-.027-.061-.107-.026-.045-.056-.1-.023-.042-.078-.135-.09-.155-.018-.03-.072-.123-.023-.039-.068-.115-.027-.045-.064-.107-.029-.05-.063-.1-.028-.048-.064-.1-.03-.049-.064-.1-.028-.047-.064-.1-.031-.049-.064-.1a.715.715 0 01-.029-.046l-.065-.1-.029-.046a6.565 6.565 0 01-.069-.109l-.025-.038-.073-.114-.024-.035-.08-.123-.015-.023-.09-.138-.007-.01c-.131-.2-.265-.4-.4-.594l-.008-.011-.093-.134-.015-.022-.082-.12-.027-.037-.074-.106c-.009-.013-.02-.027-.028-.041l-.073-.1-.029-.041-.072-.1-.031-.044-.068-.094c-.011-.017-.025-.035-.037-.051l-.066-.092-.035-.049-.068-.092-.035-.047-.07-.1-.033-.044-.068-.092-.037-.05-.07-.092-.033-.046a2.003 2.003 0 01-.075-.1l-.03-.041-.077-.1-.029-.04-.07-.09-.091-.118-.049-.063-.057-.073-.049-.063-.062-.078-.044-.055-.064-.081-.043-.053-.065-.081-.042-.053-.064-.077a1.104 1.104 0 00-.045-.056l-.066-.081-.039-.048c-.025-.029-.047-.058-.072-.086l-.034-.042-.076-.092-.031-.037-.078-.093-.028-.034-.084-.1-.02-.023-.09-.106-.014-.017q-1.306-1.526-2.735-2.905a33.776 33.776 0 015.424-2.023m-41.834 11.208a33.4 33.4 0 01-3.9-10.569 33.3 33.3 0 0120.136-.664 33.776 33.776 0 015.424 2.023 41.9 41.9 0 00-4.5 5.122l-.009.013-.085.116-.018.024-.081.11a.729.729 0 00-.021.029l-.077.1-.027.037c-.024.032-.047.066-.071.1l-.031.045-.067.094-.034.048-.064.09-.038.054-.061.086-.041.058-.057.082-.045.064c-.018.027-.037.052-.054.079l-.046.067-.052.075-.052.078-.045.065-.194.289-.026.039-.072.109a.478.478 0 00-.029.044l-.067.1-.033.051-.063.1-.035.054-.061.095c-.011.019-.023.036-.035.054l-.06.095-.036.056-.059.093-.035.056-.059.094-.035.057-.058.093-.036.059-.057.092-.036.058-.057.095-.035.057-.058.1-.033.057-.059.1-.032.054-.062.1-.028.048-.067.115-.023.039-.09.155-.078.135-.023.042-.056.1-.025.043-.06.106-.017.031c-.027.046-.051.091-.077.138a.19.19 0 00-.013.024 6.388 6.388 0 00-.063.113l-.023.041-.057.1-.019.035-.152.28-.013.026-.062.116-.018.032-.064.124-.009.015-.151.289-.01.022c-.022.042-.044.083-.064.125l-.01.021c-.075.146-.149.294-.222.441l-.006.011a41.937 41.937 0 00-3.1 8.429 33.541 33.541 0 01-10.063-10.871m29.041-14.889a42.014 42.014 0 00-42.008-.912 42.014 42.014 0 0021.795 35.923 42.012 42.012 0 0020.214 36.836A42.01 42.01 0 0072.35 404.74a42.013 42.013 0 0021.8-35.924 42.007 42.007 0 00-42.009.912M209.52 414a33.877 33.877 0 01-.96-5.708 41.935 41.935 0 007.027 1.377h.012l.158.017.332.033h.007l.152.014h.021l.156.014.326.027h.022l.139.01h.026l.322.023h.018l.141.009h.029l.142.009h.017l.32.017h.038l.121.006h.04l.143.007h.014l.158.007H221.874l.16-.007h.01l.147-.007h.037l.125-.007h.034l.322-.019h.013l.147-.009h.026l.147-.009h.012l.326-.024h.02l.146-.011h.017c.163-.012.327-.027.49-.042h.015l.158-.014.5-.051h.007a41.79 41.79 0 007.006-1.37 33.348 33.348 0 01-11.576 22.808A33.3 33.3 0 01209.52 414m10.647-33.789a33.652 33.652 0 017.125 8.541l.09.154.064.111.01.018a33.356 33.356 0 013.83 10.455 33.356 33.356 0 01-10.7 1.909h-.7a33.653 33.653 0 01-10.864-1.9 33.686 33.686 0 013.789-10.358l.009-.016.033-.058.024-.042.022-.039.047-.082.082-.139.013-.024.082-.139.006-.01a33.624 33.624 0 017.031-8.383m-23.447 11.617a33.3 33.3 0 01-9.5-17.776 33.3 33.3 0 0120.143-.666 33.766 33.766 0 015.423 2.023 41.932 41.932 0 00-6.324 7.775l-.085.135-.009.016-.08.127-.013.021-.076.123a.265.265 0 00-.016.027c-.025.039-.048.078-.072.118l-.022.034-.068.113-.023.039-.065.108-.029.049-.059.1-.036.061-.053.09-.042.071a3.275 3.275 0 00-.046.08l-.088.152-.078.135-.023.042c-.018.031-.039.066-.056.1l-.025.043-.06.106-.018.031-.076.138a.191.191 0 00-.013.024l-.064.113-.022.041c-.02.035-.038.069-.057.1l-.02.035-.151.28-.013.026-.063.116-.017.032-.064.124-.009.015-.15.288c0 .008-.009.016-.012.024l-.063.122-.012.024c-.049.1-.1.2-.148.293l-.071.143-.008.014a41.889 41.889 0 00-3.105 8.451 33.8 33.8 0 01-4.463-3.685m36.248-18.441a33.3 33.3 0 0120.136.664 33.344 33.344 0 01-13.958 21.44v-.016c0-.01 0-.021-.008-.031l-.032-.127v-.022l-.079-.3-.007-.024a5.564 5.564 0 00-.032-.123l-.009-.035-.033-.123-.007-.025-.041-.15v-.01a5.474 5.474 0 00-.038-.137l-.009-.032-.034-.119-.009-.032-.085-.3a.22.22 0 01-.008-.027l-.037-.123c0-.01-.006-.021-.009-.031l-.036-.121-.009-.028c-.029-.1-.06-.2-.09-.295l-.01-.032-.037-.119-.009-.031-.043-.135v-.012l-.048-.151-.006-.016c-.013-.044-.027-.084-.041-.128 0-.011-.009-.024-.012-.036l-.04-.121-.009-.024c-.032-.1-.065-.2-.1-.3l-.009-.028-.04-.118-.013-.037-.045-.13v-.013l-.053-.151v-.012l-.047-.133-.011-.032-.042-.118-.011-.03c-.035-.1-.071-.2-.107-.292l-.011-.03-.044-.116-.013-.036-.044-.115-.012-.033c-.018-.047-.037-.1-.055-.144v-.011l-.051-.132-.013-.034-.045-.114-.014-.035-.052-.132v-.01c-.019-.049-.038-.1-.058-.146l-.011-.027-.047-.117c0-.013-.01-.028-.016-.041l-.045-.108-.014-.035-.059-.142-.007-.013-.054-.13c-.006-.012-.01-.024-.015-.037l-.046-.105-.018-.043-.052-.122-.008-.017-.063-.144-.012-.027-.05-.115-.017-.038-.049-.111-.014-.033-.128-.284-.016-.035-.05-.108-.018-.039-.053-.117-.011-.025-.067-.142-.009-.021-.056-.119-.02-.042-.05-.106-.017-.034-.064-.133v-.009l-.068-.139-.019-.04c-.016-.033-.032-.064-.048-.1l-.024-.047-.051-.1-.018-.035-.069-.139-.009-.018-.062-.121-.019-.038-.053-.1-.022-.042-.064-.123-.007-.013-.073-.138c-.006-.012-.012-.025-.019-.036l-.054-.1-.025-.046-.05-.095-.024-.045-.073-.136-.006-.009-.069-.128a.533.533 0 01-.022-.041l-.052-.095-.028-.048-.054-.1-.022-.039-.075-.135-.017-.03-.059-.1-.027-.047-.055-.1-.024-.042-.077-.135-.09-.155-.018-.03-.072-.123-.024-.039-.067-.115-.027-.045-.064-.107-.029-.05-.063-.1c-.009-.017-.019-.032-.029-.048l-.063-.1-.03-.049-.064-.1-.028-.047-.064-.1-.031-.049a4.358 4.358 0 00-.064-.1l-.028-.046-.066-.1-.028-.046a6.565 6.565 0 01-.069-.109l-.025-.038-.074-.114-.023-.035-.08-.123-.015-.023-.091-.138-.006-.01q-.2-.3-.4-.594l-.008-.011-.092-.134-.015-.022a5.1 5.1 0 00-.083-.12l-.026-.037-.074-.106-.029-.041-.072-.1-.029-.041-.072-.1c-.01-.014-.022-.029-.031-.044l-.068-.094c-.011-.017-.025-.035-.037-.051l-.066-.092-.036-.049-.067-.092-.035-.047-.071-.1-.032-.044-.068-.092-.038-.05c-.023-.031-.045-.062-.069-.092l-.034-.046-.074-.1-.031-.041-.076-.1-.03-.04-.069-.09-.092-.118-.048-.063-.057-.073-.049-.063-.062-.078-.044-.055-.064-.081-.043-.053-.065-.081-.043-.053-.063-.077-.045-.056-.066-.081-.04-.048-.071-.086-.034-.042-.077-.092-.03-.037c-.027-.031-.052-.063-.079-.093l-.028-.034-.083-.1-.02-.023-.09-.106-.014-.017q-1.306-1.526-2.735-2.905a33.867 33.867 0 015.424-2.023m-12.8-3.656a42.014 42.014 0 00-42.008-.912 42.014 42.014 0 0021.794 35.924 42.012 42.012 0 0020.214 36.836 42.012 42.012 0 0020.214-36.836 42.014 42.014 0 0021.794-35.924 42 42 0 00-42.008.912"
    transform="translate(-10.128 -363.632)"
  ></path>
</svg>