<svg
  xmlns="http://www.w3.org/2000/svg"
  width="571"
  height="128.57"
  viewBox="0 0 571 128.57"
>
  <path
    fill="#5b8847"
    fillRule="evenodd"
    d="M225.9.145c-.17.123.442.326 1.7.562a46.858 46.858 0 0113.488 4.955A29.288 29.288 0 01255.83 26.8c.673 4.1.905 16.367.514 27.205-.666 18.463-2.406 35.442-6.629 64.66-.516 3.574-.939 6.668-.939 6.875 0 .351 1.481.371 22.141.3 19.679-.07 22.371-.121 24.207-.459 8.756-1.61 15.1-4.273 23.552-9.89 3.2-2.125 7.449-5.22 7.169-5.22-.114 0-1.669.349-3.455.775-3.907.932-9.5 1.958-13.66 2.5-4.388.574-15.319.578-18.617.006-8.6-1.49-14.424-5.111-16.341-10.15-.482-1.267-.488-1.378-.444-9.32.024-4.421.2-19.19.392-32.82.412-29.338.378-32.2-.41-35.053a32.266 32.266 0 00-7.748-13.183C258.906 6.342 250.689 2.364 239.73.519 237.268.105 226.356-.19 225.9.145zm251.967 21.789c.17.175 1.97 1.544 3.993 3.044 4.523 3.349 6.081 4.687 8.1 6.96 4.64 5.238 7.366 11.372 10.845 24.412 3.007 11.268 8.83 37.37 8.83 39.574 0 .458-.654.157-7.207-3.32-25.428-13.49-40.02-22.909-54.752-35.33a212.9 212.9 0 01-27.96-28.781 17.067 17.067 0 00-2.726-2.952c-.544-.125-10.977-1.54-14.751-2-3.925-.479-9.083-.97-11.885-1.132l-2.42-.139 1.626.964c9.843 5.833 22.6 23.135 28.191 38.25a50.321 50.321 0 012.356 9.168 194.006 194.006 0 013.7 28.574 82.537 82.537 0 01-2.847 26.486 22.8 22.8 0 00-.643 2.813c.144.154 4.451-4.565 5.876-6.439a57.478 57.478 0 007.926-14.72 66.952 66.952 0 002.949-24.392c-.219-3.668-.639-7.883-1-9.988l-.136-.779.719.577c8.6 6.929 20.5 14.707 35.217 23.026 11.148 6.3 28.24 15.522 32.32 17.439a156.964 156.964 0 0056.559 13.971 98.136 98.136 0 0010.248.327c-.068-.072-1.24-.608-2.609-1.193-11.9-5.082-22.5-11.523-28.308-17.193a28.9 28.9 0 01-4.972-6.929c-.45-.921-1.592-3.935-2.545-6.7-7.514-21.864-16.941-47.395-18.851-51.054-3.46-6.64-9.911-11.835-20.847-16.788-4.863-2.203-15.537-6.298-14.996-5.756zM312.118 23.8a16.827 16.827 0 003.681 1.513c15.685 5.483 23 11.643 25.331 21.337.578 2.4 1.047 6.906 2.52 24.212q2.466 28.963 3.062 32.654a22.023 22.023 0 003.153 8.665c5.572 8.929 17.7 14.124 37.228 15.953 2.848.267 14.994.572 14.823.372-.06-.071-2.049-.824-4.417-1.672-15.909-5.7-23.894-10.965-27.54-18.167-2.111-4.17-2.226-4.916-5.691-36.8-1.522-14-2.413-21.539-2.851-24.113a23.327 23.327 0 00-6.758-13.177c-5.991-5.972-15.114-9.469-27.943-10.711-2.392-.233-14.078-.286-14.598-.066zM58.387 26.094c6.022 3.088 12.221 9.6 14.734 15.486 2.4 5.623 1.951 13-1.184 19.324-1.274 2.571-2.353 4.121-5.4 7.754A292.053 292.053 0 013.3 124.58a17.471 17.471 0 00-3.284 2.391c.453.107 27.817-4.343 46.391-7.544 16.866-2.907 19.64-3.219 28.715-3.232 7.608-.011 9.076.117 13.148 1.144 5.366 1.353 10 4.161 12.469 7.558l.889 1.222 7.363.006c4.05 0 12.606.068 19.013.144 7.8.093 11.624.065 11.57-.086a15.119 15.119 0 00-2.09-1.668 65.662 65.662 0 01-23.611-31.1c-3.673-9.948-9.529-26.966-13.638-39.63-3.213-9.9-3.546-10.784-4.838-12.835C90.6 33.344 80.88 27.875 68.386 25.754a60.351 60.351 0 00-6.942-.465l-4.838-.108zm151.05 5.381c-19.044 1.943-38.472 12.954-49.8 28.223-8.251 11.122-11.908 24-10.458 36.83.961 8.5 4.092 17.088 9.423 25.836l2.133 3.5 1.367.181c.752.1 6.29.182 12.307.184 9.137 0 11.528-.063 14.516-.4a97.726 97.726 0 0022.556-5.169 103.667 103.667 0 0011.733-5.116l1.052-.6-.805.134a64.091 64.091 0 01-10.991.934 68.064 68.064 0 01-22.782-2.853c-13.818-4.219-22.2-12.237-23.8-22.769-.244-1.606-.238-7.4.008-7.663.063-.067 6.548-.134 14.41-.149 12.212-.024 14.71.027 17.136.346a44.142 44.142 0 0115.924 5.37l2.566 1.422 1.129-1.387c5.006-6.147 9.322-12.5 11.239-16.544l.94-1.984-1.227.14c-10.013 1.138-29.549 1.63-48.654 1.219-5.494-.118-10.02-.249-10.06-.29-.148-.157 1.27-3.468 2.305-5.385a31.237 31.237 0 016.366-8.314c7.791-7.492 18.576-10.419 29.678-8.055A49.19 49.19 0 01221.4 54.75a8.477 8.477 0 001.514.818c.31 0 .234-5.654-.108-8.038a24.05 24.05 0 00-8.506-15.052c-1.6-1.378-1.446-1.352-4.863-1.003zM82.062 69.191c1.573 3.316 2.966 7.667 5.072 15.848 1.85 7.187 3.221 12.047 3.959 14.037l.528 1.422-.621-.132a43.86 43.86 0 00-9.046-.51c-7.623.282-15.5 1.4-29.425 4.176-2.473.493-4.531.86-4.574.815a24.006 24.006 0 012.453-2.159A142.274 142.274 0 0064.2 89.629a114.566 114.566 0 0015.163-19.158c.978-1.565 1.818-2.847 1.866-2.847a10.318 10.318 0 01.833 1.567z"
    data-name="Path 4158"
  ></path>
</svg>