<svg
  xmlns="http://www.w3.org/2000/svg"
  width="497.064"
  height="63.384"
  viewBox="0 0 497.064 63.384"
>
  <path
    fill="#36a3a3"
    d="M48.094-25.159a8.319 8.319 0 012.5-6.116 8.319 8.319 0 016.116-2.5 8.319 8.319 0 016.116 2.5 8.319 8.319 0 012.5 6.116 8.319 8.319 0 01-2.5 6.116 8.319 8.319 0 01-6.116 2.5 8.319 8.319 0 01-6.116-2.5 8.319 8.319 0 01-2.5-6.116zm-29.329 12.51a6.445 6.445 0 01-5.143 2.5A6.434 6.434 0 018.9-12.093a6.434 6.434 0 01-1.95-4.726 5.761 5.761 0 011.39-4.031L42.117-66.3a17.8 17.8 0 016.255-5.213 17.875 17.875 0 018.34-2.015 18.037 18.037 0 017.923 1.807 16.2 16.2 0 016.116 5l33.777 45.175a9.526 9.526 0 011.39 2.154 5.963 5.963 0 01.556 2.572 6.434 6.434 0 01-1.946 4.726 6.434 6.434 0 01-4.728 1.947 6.217 6.217 0 01-5.282-2.641L62.133-56.017A29.971 29.971 0 0059.7-58.45a4.452 4.452 0 00-2.989-1.32 4.452 4.452 0 00-2.988 1.32 17.812 17.812 0 00-2.293 2.433zm200.994-34.472a6.434 6.434 0 014.726 1.946 6.434 6.434 0 011.946 4.726 6.434 6.434 0 01-1.946 4.726 6.434 6.434 0 01-4.726 1.946h-69.222a6.434 6.434 0 01-4.726-1.946 6.434 6.434 0 01-1.946-4.726 6.434 6.434 0 011.946-4.726 6.434 6.434 0 014.726-1.946zm-70.751-10.286a15.531 15.531 0 00-7.854 1.737 14.511 14.511 0 00-4.726 4.239 14.871 14.871 0 00-2.363 5.49 26.959 26.959 0 00-.626 5.491 26.959 26.959 0 00.626 5.491 14.871 14.871 0 002.363 5.49 14.511 14.511 0 004.726 4.24 15.531 15.531 0 007.854 1.738H225.6a6.434 6.434 0 014.726 1.946 6.434 6.434 0 011.946 4.726 6.434 6.434 0 01-1.946 4.726 6.434 6.434 0 01-4.726 1.946h-81.04a18.744 18.744 0 01-10.147-2.78 26.513 26.513 0 01-7.575-7.159 33.854 33.854 0 01-4.8-9.8 35.828 35.828 0 01-1.668-10.564 34.277 34.277 0 011.738-10.633 32.476 32.476 0 015.074-9.73 27.7 27.7 0 018.062-7.159 20.71 20.71 0 0110.7-2.78H225.6a6.434 6.434 0 014.726 1.946 6.434 6.434 0 011.946 4.726 6.434 6.434 0 01-1.946 4.726 6.434 6.434 0 01-4.726 1.946zm116.2 47.26a18.831 18.831 0 01-7.367-1.459 19.278 19.278 0 01-6.047-3.962 19.265 19.265 0 01-4.1-5.838 17.138 17.138 0 01-1.529-7.228v-35.445a6.434 6.434 0 011.946-4.726 6.434 6.434 0 014.726-1.946 6.506 6.506 0 014.657 1.946 6.324 6.324 0 012.016 4.726v35.445a4.839 4.839 0 001.6 3.614 5.173 5.173 0 003.684 1.529h83.4a6.434 6.434 0 014.726 1.946 6.434 6.434 0 011.946 4.726 6.434 6.434 0 01-1.946 4.726 6.434 6.434 0 01-4.726 1.946zm116.9-6.672a6.434 6.434 0 01-1.946 4.726 6.434 6.434 0 01-4.726 1.946 6.434 6.434 0 01-4.726-1.946 6.434 6.434 0 01-1.946-4.726v-47.26a6.434 6.434 0 011.946-4.726 6.434 6.434 0 014.726-1.946 6.434 6.434 0 014.726 1.946 6.434 6.434 0 011.946 4.726zm108.562-23.63a26.958 26.958 0 00-.626-5.491 14.87 14.87 0 00-2.363-5.49 14.315 14.315 0 00-4.8-4.239 15.611 15.611 0 00-7.784-1.737h-50.174a15.531 15.531 0 00-7.853 1.737 14.51 14.51 0 00-4.726 4.239 14.871 14.871 0 00-2.363 5.49 26.96 26.96 0 00-.625 5.491v23.63a6.434 6.434 0 01-1.946 4.726 6.434 6.434 0 01-4.726 1.946 6.434 6.434 0 01-4.726-1.946 6.434 6.434 0 01-1.946-4.726v-23.63a34.277 34.277 0 011.737-10.633 32.476 32.476 0 015.073-9.73 27.7 27.7 0 018.062-7.159 20.71 20.71 0 0110.7-2.78h58.241a20.293 20.293 0 0110.147 3.128 27.849 27.849 0 017.576 7.158 33.245 33.245 0 014.8 9.591 34.485 34.485 0 011.668 10.425v23.63a6.434 6.434 0 01-1.946 4.726 6.434 6.434 0 01-4.726 1.946 6.434 6.434 0 01-4.726-1.946 6.434 6.434 0 01-1.946-4.726z"
    data-name="Path 4152"
    transform="translate(-6.95 73.531)"
  ></path>
</svg>