<svg
  xmlns="http://www.w3.org/2000/svg"
  width="743.519"
  height="728.349"
  viewBox="0 0 743.519 728.349"
>
  <path
    fill="#36a3a3"
    d="M729.806 638.728a11.852 11.852 0 1011.852-11.852 11.853 11.853 0 00-11.852 11.852M529 552.01a11.839 11.839 0 1011.138-7.8 11.853 11.853 0 00-11.138 7.8m410.129-7.084a11.839 11.839 0 104.054-.719 11.854 11.854 0 00-4.054.719M438.783 398.7a11.851 11.851 0 109.087-4.234 11.854 11.854 0 00-9.087 4.234m589.051-1.46a11.853 11.853 0 107.612-2.773 11.852 11.852 0 00-7.612 2.773m-430.922-55.134a53.517 53.517 0 00-6.48 3.2 54.807 54.807 0 00-6.007 4.017 32.926 32.926 0 00-5.383 5.1 32.917 32.917 0 007.108-2.112c2.243-.923 6.483-3.194 6.483-3.194l6.01-4.013a50.552 50.552 0 005.379-5.1 32.514 32.514 0 00-7.11 2.107m287.76 3a53.526 53.526 0 006.011 4.012 54.66 54.66 0 006.482 3.193 32.98 32.98 0 007.107 2.113 32.838 32.838 0 00-5.382-5.1 54.462 54.462 0 00-6.007-4.017 53.518 53.518 0 00-6.48-3.2 32.545 32.545 0 00-7.11-2.107 32.579 32.579 0 005.379 5.1m-144.4-2.007a23.6 23.6 0 00-.381 4.228 23.265 23.265 0 00.376 4.228 15 15 0 001.384 4.228 14.994 14.994 0 001.384-4.228 23.255 23.255 0 00.376-4.228 23.6 23.6 0 00-.381-4.228 15.159 15.159 0 00-1.38-4.229 15.163 15.163 0 00-1.38 4.229m-75.664-10.546a4.4 4.4 0 102.2-.591 4.4 4.4 0 00-2.2.591m148.084 1.608a4.4 4.4 0 103.817-2.2 4.4 4.4 0 00-3.817 2.2m-176.322-50.535a4.4 4.4 0 102.2-.59 4.4 4.4 0 00-2.2.59m204.568 1.612a4.4 4.4 0 103.817-2.2 4.4 4.4 0 00-3.817 2.2m-155.254 16.154a33.34 33.34 0 0113.958 21.439 33.305 33.305 0 01-20.136.665 33.827 33.827 0 01-5.423-2.024 41.923 41.923 0 004.5-5.123l.009-.012.086-.116.017-.024.08-.109.023-.031.075-.1.028-.038.071-.1.03-.043.068-.095c.011-.016.024-.032.034-.048l.064-.09.037-.053.062-.087.04-.056.059-.084.043-.062.056-.081.045-.065.053-.077.051-.076.047-.067.084-.126.027-.04.083-.124.024-.036.073-.11.031-.047.065-.1.032-.049.064-.1.032-.051.063-.1.035-.055.06-.093.036-.057.059-.093.035-.056.059-.094.035-.056.06-.1.033-.053.06-.1.033-.054.06-.1.033-.055.059-.1.032-.054.062-.1.029-.049.063-.107.028-.046c.024-.039.046-.078.069-.118.007-.01.015-.025.021-.036l.09-.154.078-.136.023-.041.056-.1.026-.045c.019-.034.039-.07.059-.1l.017-.032.077-.136a.283.283 0 01.016-.029l.06-.109a.416.416 0 00.023-.042l.057-.1.019-.036c.051-.092.1-.186.152-.279l.014-.028.061-.113.018-.034.063-.119.011-.02.149-.286.012-.026.064-.123.01-.02c.075-.147.149-.295.222-.442l.006-.011a41.928 41.928 0 003.1-8.429m-51.921 21.437a33.3 33.3 0 019.5-17.776 33.816 33.816 0 014.464-3.685 41.906 41.906 0 003.108 8.457c.074.149.148.3.224.445l.01.022.065.125.01.021c.05.1.1.193.152.29l.007.013.066.125c0 .01.01.021.016.031l.065.121.01.019c.05.094.1.188.152.282l.02.035.058.105.021.039c.022.039.045.08.065.119l.01.018.077.138.02.035.058.1c.009.014.016.028.024.043l.057.1.023.041.078.136c.03.051.06.1.089.154l.025.041a11.318 11.318 0 00.093.159l.064.106.032.055.058.1.034.057.058.095.035.059.057.094.035.057.058.093.036.059.059.095.032.052.062.1.033.052.063.1.031.048.064.1.031.048.067.105.026.041.073.112.024.037.082.125.013.02c.03.047.062.094.093.14v.008q.149.223.3.444l.012.019.085.123.025.036.077.11.026.037c.024.035.048.069.072.1l.034.048.066.095.038.052.062.087.04.056.064.088.038.053.062.084.043.06.059.08.045.062.057.076c.015.021.031.044.047.064l.057.076.047.063.056.074.048.065.053.069.053.07.045.058.06.079c.016.021.033.044.05.064l.151.194.006.008.086.11.018.023.081.1.024.03.08.1.026.033.077.1.029.037.082.1.024.029.082.1.025.03.083.1.025.029c.027.034.056.068.084.1l.022.027.089.107.014.016.095.113.011.012.1.119q1.311 1.533 2.743 2.916a33.929 33.929 0 01-14.471 3.268 33.181 33.181 0 01-11.094-1.911m32.943-27.35h.42a33.385 33.385 0 0110.7 1.909 33.375 33.375 0 01-3.627 10.095l-.064.115-.009.015-.058.1-.008.013-.061.106-.014.026-.062.107-.085.146-.008.013a33.634 33.634 0 01-7.121 8.537 33.645 33.645 0 01-7.214-8.7l-.046-.082-.029-.048-.017-.03a1.416 1.416 0 00-.038-.066v-.008a33.647 33.647 0 01-3.791-10.361 33.656 33.656 0 0110.865-1.9h.273m-10.647-12.6a33.3 33.3 0 0110.638-17.079 33.363 33.363 0 0111.587 22.809 41.79 41.79 0 00-6.508-1.313c-.165-.02-.329-.039-.495-.057h-.01l-.158-.017-.327-.033h-.017l-.143-.013h-.025l-.154-.014-.167-.014-.153-.013h-.032l-.136-.011h-.022l-.32-.024h-.031l-.123-.008h-.045l-.127-.008h-.028l-.16-.008h-.01l-.146-.008h-.037l-.122-.007h-.042l-.14-.007h-.015l-.157-.007H664.984l-.157.007h-.015l-.14.007h-.042l-.122.007h-.037l-.146.008h-.01l-.16.008h-.028l-.127.009h-.044l-.125.009h-.029l-.321.024h-.022l-.136.011h-.032l-.153.013-.167.014-.154.014h-.025l-.143.013h-.017l-.327.033-.158.017h-.01q-.249.027-.5.057a41.884 41.884 0 00-6.533 1.32 33.873 33.873 0 01.96-5.708m-9.566 9.258a42.012 42.012 0 00-21.798 35.921 42.013 42.013 0 0042.009-.912 42.01 42.01 0 0042.007.912 42.008 42.008 0 00-21.794-35.923A42.011 42.011 0 00666.7 255.3a42.012 42.012 0 00-20.214 36.836m137.183 30.69a33.353 33.353 0 0113.959-21.439 41.76 41.76 0 002.314 6.746l.008.021.057.126.01.024.131.288.014.031.049.109.02.043.048.1.018.038.063.135c.008.014.014.029.021.044l.045.094.027.057.039.08c.013.026.02.042.029.064l.042.085.034.071.051.1.031.065.037.074.032.065.035.07c.01.023.022.045.033.066l.045.09.052.1.032.063c.013.026.027.051.039.077l.029.058.039.074.033.064.059.113.041.079.038.071.032.062.038.072.036.067.035.066.043.079.06.111.036.065.038.069.037.067.036.066.045.081.028.051.071.126.029.054.048.084.029.052.05.089.028.047.077.134.089.153.029.051.06.1.035.059.055.092.041.068.049.083.042.069.049.082.044.072.047.079.044.073.047.076.046.075.048.076.044.071.049.079.045.072.047.075.047.074.046.072.049.078.044.068.051.078.044.068.052.08.042.063.054.083.035.052c.107.162.215.322.324.483l.025.036.068.1.029.043.062.09.038.054.064.091c.011.015.023.031.033.047l.067.095.032.046.069.1.028.041.07.1.031.044.069.1.029.041.073.1c.009.011.017.024.027.035l.076.1.022.029.081.109.018.024.085.115.01.012a41.808 41.808 0 004.4 4.987 33.908 33.908 0 01-14.47 3.269 33.154 33.154 0 01-11.089-1.91m51.936-21.449a33.811 33.811 0 014.464 3.685 33.294 33.294 0 019.494 17.777 33.3 33.3 0 01-20.142.666 33.823 33.823 0 01-5.423-2.024 41.9 41.9 0 005-5.809l.094-.132v-.007l.093-.133.094-.135q.282-.407.556-.82l.012-.019.068-.1.029-.044.061-.093.035-.055.057-.087.039-.06.054-.085.041-.063.052-.083.042-.065.051-.081.044-.07.047-.076.047-.077.044-.071.049-.08c.013-.023.029-.048.044-.07l.048-.081.043-.071.05-.082.041-.068.052-.088.038-.064.056-.093.034-.059.063-.107a.683.683 0 00.026-.046c.03-.051.06-.1.089-.154l.077-.134.028-.048.049-.086.032-.056.046-.082c.016-.027.02-.035.029-.053l.07-.124.035-.064.038-.069c.012-.023.027-.047.039-.071l.034-.063.04-.071.035-.066c.024-.043.047-.085.069-.128.01-.018.022-.039.031-.058l.043-.08.028-.052.042-.08.028-.052.044-.082.009-.017.1-.189.02-.04.045-.085.025-.048.043-.083.024-.046.093-.186.018-.03.043-.086.024-.047.043-.085.022-.045.043-.087.018-.036.078-.161.027-.054.037-.078.028-.057.037-.079.027-.057.064-.135.029-.063.034-.074.029-.064.033-.072.03-.066.032-.071.041-.089.033-.073.044-.1.026-.058.038-.085c.012-.029.017-.036.025-.055l.041-.093.021-.046.059-.137.013-.03.047-.111.02-.046.043-.1.017-.039c.041-.1.082-.193.121-.29l.007-.016.054-.131.009-.024a41.8 41.8 0 001.86-5.689m-18.984-5.888h.275a33.632 33.632 0 0110.863 1.9 33.576 33.576 0 01-3.7 10.2l-.01.017-.027.05-.025.044-.02.034-.032.058-.014.024-.041.071-.008.014-.05.086-.085.149-.006.009a33.632 33.632 0 01-7.122 8.539 33.642 33.642 0 01-7.123-8.54v-.007l-.087-.15-.061-.105-.017-.029-.058-.1-.012-.022-.049-.087-.015-.028-.06-.106-.009-.016-.06-.108v-.006a33.355 33.355 0 01-3.561-9.973 33.389 33.389 0 0110.7-1.909h.421m-7.2-21.047a33.415 33.415 0 017.205-8.658 33.3 33.3 0 0110.643 17.107 33.779 33.779 0 01.959 5.708 41.791 41.791 0 00-5.867-1.234c-.165-.022-.328-.044-.493-.064l-.155-.019h-.014a35.893 35.893 0 00-.485-.055h-.02l-.147-.015h-.013l-.322-.032h-.025l-.134-.012h-.031l-.144-.013h-.012l-.163-.014h-.01l-.144-.012h-.037l-.13-.01h-.026l-.319-.024h-.033l-.12-.008h-.047l-.123-.008h-.031l-.158-.008h-.014l-.143-.008h-.038l-.121-.007h-.043l-.138-.007h-.017l-.18-.052H814.889l-.157.007h-.015l-.14.007h-.042l-.122.007h-.038l-.146.008h-.011l-.159.008h-.028l-.127.009h-.044l-.125.009h-.03l-.321.024h-.023l-.135.011h-.032l-.153.013-.166.014-.153.014h-.025l-.143.013h-.017l-.327.033-.158.017h-.01c-.166.018-.33.037-.495.057a41.8 41.8 0 00-6.509 1.313 33.542 33.542 0 014.383-14.151M796.4 292.139a42.011 42.011 0 00-21.8 35.922 42.011 42.011 0 0042.009-.911 42.009 42.009 0 0042.008.911 42.011 42.011 0 00-21.794-35.922 42.011 42.011 0 00-20.212-36.839 42.012 42.012 0 00-20.211 36.839m-43.133-17.831a33.756 33.756 0 01-.959 5.707 33.3 33.3 0 01-10.647 17.111 33.3 33.3 0 01-10.647-17.111 33.751 33.751 0 01-.959-5.707 41.934 41.934 0 009.382 1.565h.013l.152.008h.015l.331.014h.013l.144.006h.192l.321.009H742.701l.321-.009h.019l.141-.006h.031l.147-.006h.01l.333-.014h.012l.155-.008h.01a41.886 41.886 0 009.383-1.565m-11.606-28.052a33.4 33.4 0 016.6 7.654l.051.082.03.048.062.1.022.036.082.133v.007l.091.15v.007l.08.135.018.029.069.119.017.029c.029.047.056.1.084.144l.047.082.022.039.024.041.034.062.008.012a33.665 33.665 0 013.789 10.359 33.65 33.65 0 01-10.864 1.9h-.548a33.655 33.655 0 01-10.864-1.9 33.692 33.692 0 013.835-10.439l.008-.012.046-.067.045-.08.08-.138.033-.055.047-.08.041-.069.034-.058a33.386 33.386 0 016.98-8.274m-23.448 11.595a33.3 33.3 0 01-9.493-17.77 33.357 33.357 0 0125.546 1.369 41.726 41.726 0 00-5.083 5.93l-.095.135-.095.136q-.273.394-.539.8l-.033.049-.053.081-.044.067-.049.074-.047.074-.046.07-.05.078-.044.068-.051.081-.043.067-.052.082-.042.065-.052.084-.041.065-.053.086-.039.063-.055.09-.037.06-.057.093c-.011.02-.024.039-.036.059l-.055.093-.036.06-.057.094-.034.058-.059.1-.031.053-.065.112a1.49 1.49 0 00-.024.041c-.03.051-.06.1-.09.155l-.078.136-.022.038-.059.1-.022.038-.065.117-.011.02-.081.144-.075.135-.015.027c-.023.042-.045.081-.066.122l-.01.018c-.08.146-.159.294-.236.44v.009a41.928 41.928 0 00-3.65 9.512 33.752 33.752 0 01-4.464-3.685m45.29-19.68a33.38 33.38 0 0111.1 1.91 33.3 33.3 0 01-9.494 17.77 33.767 33.767 0 01-4.464 3.686 41.868 41.868 0 00-3.107-8.455v-.008c-.074-.15-.151-.3-.227-.45l-.074-.144v-.01c-.05-.1-.1-.2-.155-.3a9.11 9.11 0 00-.072-.138l-.012-.023-.066-.125-.01-.019-.155-.286-.013-.024-.063-.114-.019-.035-.066-.12-.01-.019-.079-.141-.011-.02-.064-.115-.024-.042-.058-.1-.022-.038-.078-.136-.09-.155-.018-.031-.072-.123-.024-.039-.067-.115-.027-.045-.065-.107-.029-.05-.063-.1a2.027 2.027 0 00-.029-.048l-.062-.1-.03-.049-.064-.1-.029-.047-.065-.1c-.009-.017-.02-.033-.03-.049a2.46 2.46 0 00-.065-.1l-.028-.045-.066-.105-.028-.045a3.249 3.249 0 01-.069-.108l-.025-.039-.073-.114-.024-.035-.08-.123-.015-.023-.091-.138-.006-.01q-.2-.3-.4-.594l-.008-.011-.092-.134-.015-.022-.083-.12-.026-.038-.074-.105-.029-.042-.072-.1-.029-.041-.072-.1-.031-.044-.068-.094c-.011-.017-.025-.035-.037-.051l-.066-.092-.035-.048-.068-.093-.035-.047-.071-.1-.032-.044-.068-.092-.038-.05c-.023-.03-.045-.062-.069-.092l-.034-.046-.074-.1-.031-.041-.076-.1-.03-.04-.069-.09-.092-.118-.048-.063-.057-.073-.049-.062-.062-.079-.044-.055-.064-.081-.043-.053-.065-.081-.043-.053-.063-.077-.045-.056-.066-.081-.04-.048-.071-.086-.034-.042-.077-.092-.03-.037c-.027-.031-.052-.063-.079-.093l-.028-.034-.083-.1-.02-.023-.09-.106-.014-.017q-1.3-1.518-2.717-2.888a33.535 33.535 0 0114.447-3.279m-21.843-2.418a42.012 42.012 0 00-42.007-.912 42.014 42.014 0 0021.794 35.924 42.011 42.011 0 0020.214 36.835 42.011 42.011 0 0020.214-36.835 42.014 42.014 0 0021.794-35.924 42.007 42.007 0 00-42.009.912m78.132-21.919a23.207 23.207 0 00-3.85 1.788 23.48 23.48 0 00-3.471 2.444 15.14 15.14 0 00-2.972 3.308 15.155 15.155 0 004.351-.919 23.6 23.6 0 003.852-1.784 23.155 23.155 0 003.473-2.44 15.022 15.022 0 002.97-3.313 14.968 14.968 0 00-4.354.915m-157.645 2.4a23.158 23.158 0 003.473 2.44 23.63 23.63 0 003.852 1.784 15.157 15.157 0 004.352.919 15.143 15.143 0 00-2.973-3.308 23.53 23.53 0 00-3.471-2.444 23.163 23.163 0 00-3.85-1.788 14.958 14.958 0 00-4.353-.915 14.978 14.978 0 002.97 3.313m46.839-58.43a4.4 4.4 0 104.4-4.4 4.4 4.4 0 00-4.4 4.4m56.492 0a4.4 4.4 0 104.4-4.4 4.4 4.4 0 00-4.4 4.4M708.716 193a33.3 33.3 0 019.493-17.769 33.816 33.816 0 014.464-3.685 41.87 41.87 0 003.108 8.454v.007c.073.148.147.294.222.442l.012.025.063.121.012.024c.049.1.1.192.15.289l.007.012.066.126.017.031.065.121.01.019c.05.094.1.188.152.282l.02.035.058.105.021.039c.022.039.045.08.065.119l.01.018.077.137.02.035.058.1.024.043.057.1.023.042.078.135.089.154.026.044.065.111.03.05.06.1.035.059.056.093.036.06.055.092.037.062.056.09.036.061.056.09c.013.021.026.041.038.063l.055.088.038.06.056.09.039.061.056.089.037.059.057.088.04.063.056.087.038.059.059.09.039.059.058.088.038.058.054.082.045.066.058.087.072.107.061.09.057.083.041.061.063.09.034.05.064.092.036.051.063.092.034.047.066.1a.515.515 0 01.032.045l.071.1.026.035.074.1c.009.013.017.025.027.037l.075.1.022.03.082.111.016.022.087.12.007.008a41.726 41.726 0 004.588 5.245A33.349 33.349 0 01708.716 193m51.925-21.455a33.772 33.772 0 014.464 3.686A33.3 33.3 0 01774.6 193a33.352 33.352 0 01-25.547-1.368 41.763 41.763 0 004.486-5.106l.01-.012.086-.117.017-.023.08-.109.023-.031.075-.1.028-.038.071-.1.03-.043.068-.095.034-.048.064-.09.037-.053.062-.087.04-.056.059-.084.043-.062.055-.081.045-.065.053-.077.051-.076.045-.067.085-.126.026-.04.083-.124.024-.036.073-.11.031-.047.065-.1.032-.049.065-.1.032-.05.063-.1.035-.055.06-.094.036-.056.059-.093.035-.056.059-.095.035-.055.06-.1.032-.053c.021-.032.041-.065.061-.1s.022-.036.033-.054l.06-.1.032-.055.06-.1.032-.054.062-.1.029-.049.063-.107c.009-.015.019-.03.027-.046.024-.039.046-.079.069-.118l.021-.036.09-.155.077-.135.025-.042c.017-.031.036-.064.054-.1l.027-.047.057-.1.02-.036.075-.135.019-.033.057-.1.026-.047.053-.1.023-.042.069-.129v-.008l.074-.138.02-.037.054-.1.024-.044.055-.105.018-.033.073-.139.007-.013.063-.123.022-.042c.017-.035.034-.068.052-.1l.02-.04.064-.124.007-.013.071-.141.015-.03.055-.11.02-.041.052-.107.017-.033.137-.284.016-.031.053-.112.016-.035.06-.125.008-.016.067-.144.01-.022.056-.119.017-.036.051-.113.014-.031.129-.286.013-.028.051-.117.015-.034.055-.124.008-.017.064-.149.059-.138.013-.031.051-.12.01-.024.123-.3.008-.017.052-.128.012-.027.056-.138v-.006l.12-.3.008-.018.052-.136.007-.015.117-.3.057-.149v-.01c.077-.2.153-.411.227-.617q.708-1.978 1.209-3.991m-18.984-5.888h.275a33.618 33.618 0 0110.863 1.9 33.655 33.655 0 01-3.744 10.279l-.007.013c-.011.02-.023.039-.033.059l-.02.034-.025.044-.031.055-.015.027-.048.084c-.028.048-.056.1-.084.144l-.017.029-.07.119-.016.028-.081.136v.007l-.092.151-.084.138-.022.036-.062.1-.03.048a2.32 2.32 0 01-.052.083 33.372 33.372 0 01-6.6 7.653 33.37 33.37 0 01-6.98-8.274l-.034-.058-.041-.068-.047-.081a1.562 1.562 0 00-.032-.055l-.08-.137-.045-.078a33.69 33.69 0 01-3.88-10.517 33.622 33.622 0 0110.863-1.9h.275m-10.647-12.6a33.3 33.3 0 0110.647-17.11 33.3 33.3 0 0110.647 17.11 33.862 33.862 0 01.96 5.708 41.787 41.787 0 00-7.031-1.377l-.5-.05h-.011l-.15-.014h-.019c-.161-.015-.322-.028-.484-.042h-.028l-.14-.011h-.017l-.324-.024h-.026l-.129-.009h-.042l-.131-.009h-.025l-.162-.01-.152-.008h-.034l-.126-.007h-.039l-.145-.007h-.01l-.159-.007h-3.44l-.157.007h-.015l-.14.007h-.042l-.122.007h-.037l-.146.008h-.01l-.16.01h-.028l-.127.008h-.044l-.125.009h-.029l-.321.024h-.023l-.135.011h-.032l-.153.012-.166.014-.154.014h-.025l-.143.013h-.017l-.327.033-.158.017h-.01l-.495.057a41.834 41.834 0 00-6.532 1.32 33.762 33.762 0 01.959-5.708m-9.566 9.257a42.014 42.014 0 00-21.794 35.924 42.014 42.014 0 0042.008-.912 42.014 42.014 0 0042.008.912 42.014 42.014 0 00-21.794-35.924 42.012 42.012 0 00-20.214-36.836 42.012 42.012 0 00-20.214 36.836m-104.116 170a123.8 123.8 0 0137.142-81.021 125.276 125.276 0 0123.7-18.251 132.46 132.46 0 0016.083 52.041l.39.7a.2.2 0 01.014.025l.112.2.022.038c.084.15.168.3.253.446l.023.042.1.177.035.062a23.038 23.038 0 01.127.221l.124.216.141.244.036.062.106.183.044.074c.033.057.065.112.1.168l.051.087.092.156.05.085.093.157.052.087c.03.052.062.1.093.156l.05.085.092.156.054.09c.03.051.062.1.093.154l.049.083.1.158.051.085.1.158.048.08.1.162.048.08.1.167.043.07.108.177.039.063c.042.068.083.136.126.2l.019.03.141.229.008.012c.151.243.3.484.453.725l.015.024.132.209.037.059c.037.06.077.121.115.18l.039.062.108.17.05.079.1.157.053.083.094.145.061.095.094.145.055.085.095.146.06.092.09.138.065.1.082.126.07.107.083.127.07.105.077.117.079.119.065.1.089.135.051.077.1.152.05.075c.123.185.245.365.37.549l.033.049.112.165.041.061.11.16.045.066c.036.054.071.1.108.158l.045.064.118.174.031.045.121.174.034.05.119.171.038.054.119.171.033.047.129.184.018.026.138.2a.1.1 0 01.011.016 132.31 132.31 0 0031.724 31.823 125.311 125.311 0 01-61.22 16.011h-.009a124.571 124.571 0 01-55.149-12.951m187.82-99.272a125.248 125.248 0 0123.7 18.251 123.8 123.8 0 0137.142 81.021 124.554 124.554 0 01-55.145 12.951 125.32 125.32 0 01-61.226-16.013 132.286 132.286 0 0033.975-35.128l.018-.027.122-.186.029-.046.112-.17.043-.065.1-.156.051-.078.1-.147.056-.087.093-.142.059-.091.088-.137.066-.1.081-.126.07-.11c.027-.041.052-.083.079-.122l.073-.116.075-.118.079-.124.069-.109.087-.138.061-.1.11-.176.036-.057.3-.479.022-.036c.043-.067.083-.135.126-.2l.037-.061.109-.177.046-.074c.034-.055.068-.11.1-.166l.048-.078.1-.161.049-.082c.032-.053.065-.106.1-.159l.051-.084c.031-.05.063-.1.094-.155l.053-.087.093-.156.051-.085.093-.155.054-.09.091-.154.051-.085c.031-.054.064-.108.1-.161l.048-.081.094-.16.049-.083.093-.157c.015-.028.036-.062.051-.088l.1-.164.045-.077.105-.182.037-.063.141-.244.121-.211c.015-.027.029-.052.046-.079l.075-.132.053-.093.071-.124.052-.091.11-.193c.019-.035.039-.069.059-.1s.04-.07.059-.1l.065-.115.052-.094.067-.12.043-.076.156-.28.018-.032.079-.142a1.98 1.98 0 00.035-.063l.079-.142.03-.055.282-.512.006-.011.09-.164.02-.037q.2-.361.391-.723l.1-.185q1.786-3.342 3.363-6.742l.01-.02.082-.176.007-.014c.083-.177.164-.357.246-.534l.015-.033.071-.157.026-.055.069-.152c0-.012.011-.027.017-.039l.125-.278.036-.08.057-.127.039-.086.057-.128.041-.092.054-.121.071-.16.063-.145.047-.106.048-.11.05-.116.043-.1.075-.172.02-.044c.03-.072.063-.146.094-.217l.029-.069.069-.16.029-.066.078-.182c.007-.014.012-.028.018-.043l.2-.463.014-.034.087-.207.012-.028a132.138 132.138 0 009.767-39.027M741.657 215.7h.466a124.844 124.844 0 0154.828 12.914 124.857 124.857 0 01-16.226 53.931l-.021.035-.083.147-.027.045-.105.184c-.041.07-.082.14-.121.211l-.048.082-.073.126-.061.1-.058.1-.072.122-.042.072-.088.149-.013.024a124.856 124.856 0 01-38.255 40.441q-.779-.519-1.55-1.049l-.009-.007-.174-.12-.07-.047-.1-.071-.12-.083-.02-.013a124.894 124.894 0 01-36.206-39.046.322.322 0 01-.018-.03l-.088-.149-.037-.063-.079-.133-.051-.089-.064-.11-.071-.123-.049-.084c-.04-.069-.082-.139-.121-.21l-.107-.186-.022-.038c-.029-.052-.059-.1-.089-.155l-.015-.027a124.84 124.84 0 01-16.229-53.936 124.844 124.844 0 0154.822-12.914h.466m-51.6-26.048a123.81 123.81 0 0151.6-72.677 123.81 123.81 0 0151.6 72.677 125.342 125.342 0 013.957 29.648 132.37 132.37 0 00-50.134-12.005h-.02l-.251-.01h-.009l-.533-.019h-.011l-.24-.008h-.042l-.239-.008h-.015l-.52-.014h-.044l-.215-.006h-.047l-.509-.011H738.93l-.509.011h-.048l-.214.006h-.045l-.519.014h-.014l-.24.008h-.041l-.241.008h-.011l-.533.019h-.01l-.252.01h-.018A132.37 132.37 0 00686.1 219.3a125.285 125.285 0 013.957-29.648m-12.429 33.919A133.077 133.077 0 00608.6 337.356a133.078 133.078 0 00133.063-2.889 133.071 133.071 0 00133.059 2.889 133.077 133.077 0 00-69.033-113.789 133.075 133.075 0 00-64.028-116.678 133.074 133.074 0 00-64.028 116.678m62.3-143.593a54.641 54.641 0 00-.476 7.211 53.537 53.537 0 00.47 7.21 32.483 32.483 0 001.73 7.211 32.53 32.53 0 001.73-7.211 53.688 53.688 0 00.47-7.21 54.808 54.808 0 00-.476-7.211 32.913 32.913 0 00-1.725-7.211 32.92 32.92 0 00-1.725 7.211m-78.869 558.754a80.6 80.6 0 1180.6 80.6 80.687 80.687 0 01-80.6-80.6m-142.007-24.749a61.559 61.559 0 1121.074 3.738 61.232 61.232 0 01-21.074-3.738m366.209-36.836a61.684 61.684 0 0157.909-82.734 61.654 61.654 0 11-57.91 82.734M426.53 431.745a33.184 33.184 0 1121.308 7.766 32.97 32.97 0 01-21.308-7.766m583.5-4.09a33.188 33.188 0 0125.4-54.52 33.188 33.188 0 11-25.4 54.52m-258.554 103.5a268.366 268.366 0 00233.467-381.763q-.667-1.431-1.35-2.852a307.641 307.641 0 0164.336 199.348q-.265 7.258-.874 14.464a47.414 47.414 0 00-47.922 76.448 47.2 47.2 0 0025.366 15.655 310.937 310.937 0 01-5.149 11.706 309.436 309.436 0 01-21.75 39.031 75.877 75.877 0 00-112.174 102.082 308.98 308.98 0 01-38.972 17.317 317.34 317.34 0 01-10.786 3.688 94.832 94.832 0 00-188.02 0 312.22 312.22 0 01-10.785-3.688 308.843 308.843 0 01-38.975-17.318 75.875 75.875 0 00-112.172-102.082 309.537 309.537 0 01-21.751-39.031 318.29 318.29 0 01-5.148-11.706 47.412 47.412 0 00-10.93-93.54 47.708 47.708 0 00-11.625 1.438q-.6-7.205-.873-14.464a307.638 307.638 0 0164.274-199.27q-5.693 11.892-10.252 24.41a268.581 268.581 0 00252.269 360.3c3.248 0 6.543-.06 9.795-.177M621.6 724.868A351.221 351.221 0 01481.139 159.63q6.393-7.083 13.129-13.776a312.431 312.431 0 00-63.617 200.2q.287 7.889.968 15.717a47.414 47.414 0 0016.22 91.959 47.766 47.766 0 006.2-.4q2.672 6.457 5.629 12.834a313.876 313.876 0 0022.742 40.653A75.875 75.875 0 00594.589 608.9a313.445 313.445 0 0040.653 18.148q5.92 2.155 11.9 4.055-.3 3.772-.3 7.626a94.82 94.82 0 10189.639 0q0-3.85-.3-7.626 5.976-1.91 11.9-4.055a313.733 313.733 0 0040.645-18.148A75.877 75.877 0 001000.9 506.817a314.127 314.127 0 0022.744-40.654 319.15 319.15 0 005.628-12.834 47.738 47.738 0 006.2.4 47.417 47.417 0 0016.222-91.959q.68-7.827.967-15.717a312.42 312.42 0 00-63.609-200.194 351.226 351.226 0 01-234.54 600.028c-4.26.155-8.574.232-12.821.232A350.133 350.133 0 01621.6 724.868m-37.019-666.7A371.77 371.77 0 00741.7 766.778q6.777 0 13.569-.246a371.567 371.567 0 00323.243-528.589A370.566 370.566 0 00868.777 45.761Q858 41.84 847.086 38.6a247.85 247.85 0 01-96.358 471.913q-4.528.165-9.048.164A247.772 247.772 0 01636.614 38.429a375.216 375.216 0 00-52.031 19.74m157.074 2.268l173.057 299.744H568.6zm-9.53-5.5L559.071 354.679l-9.531 16.507h384.234l-9.53-16.507L751.188 54.936l-9.53-16.507z"
    transform="translate(-369.899 -38.429)"
  ></path>
</svg>