<svg width="135" height="22" viewBox="0 0 135 22" fill="none" xmlns="http://www.w3.org/2000/svg">
<path fill-rule="evenodd" clip-rule="evenodd" d="M47.5943 0.024535C47.5586 0.0453618 47.6875 0.0795959 47.9516 0.119329C48.8761 0.258525 50.0366 0.59985 50.7934 0.955185C52.5258 1.76848 53.5861 2.98487 53.9012 4.52055C54.0431 5.21167 54.092 7.28135 54.0096 9.10966C53.8693 12.2241 53.5025 15.0881 52.6128 20.0166C52.504 20.6195 52.4149 21.1414 52.4149 21.1763C52.4149 21.2356 52.7269 21.239 57.0799 21.2266C61.2261 21.2147 61.7932 21.2061 62.1802 21.1492C64.025 20.8776 65.361 20.4284 67.1423 19.4808C67.8161 19.1223 68.7117 18.6003 68.6529 18.6003C68.6287 18.6003 68.3011 18.6592 67.9249 18.731C67.1017 18.8884 65.9226 19.0613 65.0468 19.153C64.1223 19.2499 61.8193 19.2505 61.1243 19.1541C59.3134 18.9027 58.0853 18.292 57.6813 17.442C57.5797 17.2282 57.5786 17.2096 57.5878 15.8699C57.5928 15.1242 57.63 12.6329 57.6703 10.3337C57.757 5.38484 57.7499 4.90157 57.584 4.42082C57.3182 3.65091 56.6821 2.78432 55.9516 2.19707C54.5493 1.06971 52.8181 0.398738 50.5091 0.0875801C49.9905 0.0177183 47.6914 -0.0320323 47.5943 0.024535ZM100.682 3.69991C100.719 3.72936 101.098 3.96037 101.524 4.21331C102.477 4.7783 102.805 5.00389 103.229 5.38729C104.207 6.27078 104.782 7.30561 105.515 9.50511C106.148 11.4058 107.375 15.8088 107.375 16.1806C107.375 16.2578 107.237 16.207 105.857 15.6206C100.501 13.3451 97.4257 11.7563 94.3218 9.66106C92.2696 8.27576 90.1808 6.55434 88.4309 4.80628C88.1662 4.5419 87.9075 4.31782 87.8559 4.30836C87.7413 4.28731 85.5431 4.04865 84.7482 3.97092C83.9213 3.8901 82.8345 3.80724 82.244 3.78005L81.7343 3.75655L82.0771 3.91921C84.151 4.90311 86.8377 7.82164 88.0167 10.3713C88.2229 10.8172 88.3286 11.1469 88.5128 11.9178C88.9795 13.8709 89.205 15.2646 89.2928 16.7377C89.3867 18.3142 89.2091 19.6359 88.6925 21.2054C88.6091 21.4588 88.5482 21.6723 88.557 21.6798C88.5877 21.7059 89.4952 20.9098 89.7952 20.5937C90.4645 19.8883 91.1216 18.9114 91.4652 18.1107C91.9611 16.9554 92.1926 15.4224 92.0866 13.9962C92.0406 13.3775 91.9518 12.6665 91.8761 12.3113L91.8481 12.18L91.9991 12.2774C93.8111 13.4461 96.3175 14.7581 99.4189 16.1614C101.768 17.2241 105.369 18.7797 106.229 19.103C109.773 20.4354 113.967 21.2649 118.145 21.4596C119.323 21.5145 120.335 21.5403 120.304 21.5147C120.29 21.5025 120.043 21.412 119.755 21.3135C117.248 20.4562 115.014 19.3697 113.791 18.4133C113.425 18.1274 112.973 17.6234 112.742 17.2445C112.648 17.0892 112.407 16.5807 112.207 16.1147C110.623 12.4266 108.637 8.12003 108.235 7.5028C107.506 6.38268 106.147 5.50645 103.842 4.67089C102.817 4.29921 100.569 3.60843 100.682 3.69991ZM65.7606 4.01449C65.7265 4.02594 66.0756 4.14081 66.5362 4.26972C69.8409 5.19454 71.3818 6.23373 71.8732 7.86898C71.995 8.27452 72.0938 9.03396 72.4042 11.9531C72.7505 15.2101 72.9659 17.0491 73.0493 17.4612C73.1662 18.0393 73.3639 18.4742 73.7136 18.9229C74.8876 20.429 77.442 21.3054 81.557 21.6139C82.1575 21.6589 84.7165 21.7103 84.6803 21.6767C84.6673 21.6646 84.2484 21.5377 83.7495 21.3946C80.3983 20.4336 78.7155 19.5449 77.9474 18.3301C77.5026 17.6266 77.4783 17.5008 76.7483 12.1226C76.4276 9.76022 76.2399 8.48926 76.1475 8.05514C75.9581 7.16483 75.5029 6.4542 74.7238 5.83241C73.4615 4.82508 71.5395 4.23519 68.8364 4.0256C68.3323 3.98651 65.8701 3.97762 65.7606 4.01449ZM12.3015 4.40161C13.5704 4.92258 14.8763 6.02139 15.4059 7.01381C15.912 7.96238 15.8168 9.20645 15.1564 10.2735C14.888 10.7072 14.6606 10.9687 14.0193 11.5815C10.3004 15.1349 5.5787 18.4775 0.694496 21.0146C0.279947 21.2299 -0.031418 21.4114 0.00253305 21.4178C0.0979594 21.4359 5.86334 20.6853 9.7767 20.1453C13.3303 19.6549 13.9147 19.6022 15.8267 19.6C17.4297 19.5982 17.7388 19.6198 18.5969 19.7931C19.7274 20.0213 20.7032 20.4949 21.224 21.0679L21.4114 21.274L22.9626 21.2749C23.8159 21.2754 25.6185 21.2864 26.9686 21.2993C28.6126 21.3149 29.4176 21.3101 29.4063 21.2847C29.397 21.2638 29.1988 21.1372 28.9659 21.0034C26.6657 19.6822 24.9828 17.9074 23.9912 15.7569C23.2175 14.0788 21.9836 11.2082 21.1178 9.072C20.4408 7.40145 20.3708 7.25288 20.0985 6.90692C19.089 5.62448 17.0407 4.70196 14.4084 4.34422C14.1419 4.30803 13.5587 4.27673 12.9458 4.26581L11.9263 4.24758L12.3015 4.40161ZM44.1266 5.30925C40.1142 5.63706 36.0209 7.4944 33.6345 10.07C31.8961 11.9462 31.1256 14.1186 31.4311 16.2826C31.6335 17.7169 32.2933 19.1652 33.4165 20.6407L33.866 21.231L34.1541 21.2616C34.3125 21.2783 35.4793 21.2922 36.7469 21.2925C38.672 21.293 39.1758 21.2819 39.8052 21.2246C41.5168 21.0691 43.0715 20.7839 44.5576 20.3528C45.3722 20.1164 46.5891 19.6916 47.0297 19.4898L47.2514 19.3882L47.0818 19.4108C46.2601 19.5201 45.8212 19.55 44.7661 19.5683C42.8905 19.6009 41.496 19.4611 39.966 19.0871C37.0547 18.3754 35.2889 17.0229 34.9521 15.2465C34.9008 14.9756 34.9021 13.9977 34.9538 13.9537C34.9671 13.9425 36.3333 13.9312 37.9899 13.9286C40.5628 13.9246 41.0891 13.9331 41.6002 13.987C42.7641 14.1097 43.8524 14.4035 44.9554 14.8928L45.496 15.1327L45.734 14.8987C46.7888 13.8618 47.6981 12.7901 48.1019 12.108L48.3 11.7732L48.0416 11.7968C45.9317 11.9898 41.8148 12.0728 37.7894 12.0034C36.632 11.9835 35.6782 11.9614 35.6699 11.9544C35.6388 11.9279 35.9375 11.3693 36.1557 11.046C36.5301 10.491 36.9042 10.0999 37.4968 9.64362C39.1384 8.37986 41.4106 7.88608 43.7499 8.2848C44.6194 8.433 45.8396 8.83338 46.6467 9.23537C46.7991 9.31122 46.9426 9.37329 46.9657 9.37329C47.031 9.37329 47.015 8.41955 46.9429 8.01748C46.7662 7.03279 46.1685 6.18612 45.1506 5.4785C44.815 5.24523 44.8466 5.25043 44.1266 5.30925ZM17.2898 11.6713C17.6213 12.2306 17.9147 12.9647 18.3583 14.3446C18.7481 15.5568 19.0369 16.3767 19.1924 16.7124L19.3036 16.9522L19.1731 16.93C18.7545 16.8589 17.9655 16.8233 17.2672 16.8439C15.661 16.8915 14.0022 17.08 11.0676 17.5484C10.5466 17.6316 10.1129 17.6934 10.104 17.6858C10.0951 17.6782 10.3276 17.5144 10.6208 17.3216C11.5896 16.6849 12.4447 16.0365 13.5256 15.1189C14.9763 13.8875 15.8502 13.0037 16.7212 11.8872C16.9272 11.6231 17.1042 11.407 17.1145 11.407C17.1247 11.407 17.2036 11.5259 17.2898 11.6713Z" fill="#A4F3FF"/>
</svg>
