<svg width="12" height="9" viewBox="0 0 12 9" fill="none" xmlns="http://www.w3.org/2000/svg">
<path d="M10.1584 0.746426C9.39347 0.401449 8.57349 0.146465 7.71602 0.00147499C7.70838 9.04035e-06 7.70048 0.000953749 7.6934 0.00417848C7.68632 0.0074032 7.68042 0.0127484 7.67652 0.0194738C7.57152 0.203962 7.45452 0.444446 7.37253 0.634433C6.4631 0.498561 5.53853 0.498561 4.62911 0.634433C4.53778 0.423878 4.43479 0.218573 4.32062 0.0194738C4.31675 0.0126656 4.31089 0.00719949 4.30383 0.0038049C4.29678 0.000410306 4.28885 -0.000751358 4.28112 0.000475005C3.42414 0.145465 2.60417 0.400449 1.83869 0.745926C1.8321 0.748688 1.82652 0.753399 1.82269 0.759425C0.266733 3.04677 -0.159755 5.27763 0.0497389 7.48048C0.0503218 7.48588 0.0519966 7.4911 0.0546612 7.49583C0.0573258 7.50055 0.0609246 7.50469 0.0652384 7.50798C0.973408 8.16915 1.98635 8.67281 3.06165 8.99788C3.06915 9.00019 3.07717 9.00019 3.08466 8.99787C3.09215 8.99555 3.09877 8.99102 3.10365 8.98488C3.33464 8.6749 3.54064 8.34743 3.71663 8.00345C3.72713 7.98345 3.71713 7.95945 3.69613 7.95145C3.37315 7.82982 3.06019 7.68305 2.76016 7.51248C2.75477 7.5094 2.75023 7.50504 2.74694 7.49977C2.74365 7.4945 2.74172 7.48851 2.74133 7.48231C2.74093 7.47612 2.74208 7.46992 2.74467 7.46428C2.74726 7.45864 2.75121 7.45372 2.75616 7.44999C2.81916 7.40349 2.88216 7.35499 2.94216 7.3065C2.94756 7.30213 2.95406 7.29936 2.96095 7.29847C2.96783 7.29759 2.97483 7.29864 2.98115 7.3015C4.9446 8.18344 7.07104 8.18344 9.01148 7.3015C9.01782 7.29847 9.02489 7.29729 9.03187 7.29808C9.03886 7.29888 9.04548 7.30162 9.05098 7.30599C9.11098 7.35499 9.17348 7.40349 9.23697 7.44999C9.24198 7.45365 9.24599 7.45849 9.24866 7.46409C9.25133 7.46968 9.25258 7.47585 9.25228 7.48204C9.25198 7.48823 9.25015 7.49425 9.24696 7.49957C9.24376 7.50488 9.2393 7.50932 9.23397 7.51248C8.93498 7.68447 8.62399 7.82996 8.2975 7.95095C8.29249 7.95277 8.28792 7.95564 8.2841 7.95937C8.28028 7.96309 8.27731 7.96759 8.27537 7.97256C8.27343 7.97753 8.27257 7.98285 8.27285 7.98818C8.27313 7.99351 8.27455 7.99871 8.277 8.00345C8.457 8.34693 8.66299 8.67391 8.88948 8.98438C8.89419 8.99076 8.90075 8.99552 8.90827 8.99802C8.91578 9.00053 8.92389 9.00066 8.93148 8.99838C10.0086 8.67422 11.0232 8.17033 11.9324 7.50798C11.9368 7.50488 11.9406 7.50087 11.9433 7.49621C11.9461 7.49156 11.9478 7.48636 11.9484 7.48098C12.1984 4.93415 11.5294 2.7213 10.1739 0.760425C10.1706 0.754053 10.1651 0.749085 10.1584 0.746426ZM4.01012 6.13907C3.41914 6.13907 2.93166 5.60461 2.93166 4.94915C2.93166 4.29319 3.40964 3.75923 4.01012 3.75923C4.61511 3.75923 5.09809 4.29769 5.08859 4.94915C5.08859 5.60511 4.61061 6.13907 4.01012 6.13907ZM7.99751 6.13907C7.40603 6.13907 6.91904 5.60461 6.91904 4.94915C6.91904 4.29319 7.39653 3.75923 7.99751 3.75923C8.60249 3.75923 9.08548 4.29769 9.07598 4.94915C9.07598 5.60511 8.60299 6.13907 7.99751 6.13907Z" fill="#767676" fill-opacity="0.5"/>
</svg>
