<svg
  xmlns="http://www.w3.org/2000/svg"
  width="35"
  height="35"
  fill="none"
  viewBox="0 0 35 35"
>
  <g opacity="0.7">
    <path
      fill="#E1E1E1"
      stroke="#C4C4C4"
      d="M33.666 17.5c0 9.402-7.411 17-16.525 17-9.114 0-16.526-7.598-16.526-17 0-9.402 7.412-17 16.526-17s16.525 7.598 16.525 17z"
    ></path>
    <path
      fill="#3F7923"
      d="M22.083 11.417c-.499 0-.997.195-1.378.586l-.808.83 2.757 2.834.807-.83c.761-.782.761-2.051 0-2.834a1.916 1.916 0 00-1.378-.586zm-3.22 2.479l-7.925 8.146v2.833h2.757l7.925-8.146-2.757-2.833z"
    ></path>
  </g>
</svg>