<svg width="29" height="22" viewBox="0 0 29 22" fill="none" xmlns="http://www.w3.org/2000/svg">
<path d="M12.7076 17.995C13.2076 17.995 13.5076 18.395 13.5076 18.795C13.5076 19.295 13.1076 19.595 12.7076 19.595C12.2076 19.595 11.9076 19.195 11.9076 18.795C11.9076 18.395 12.2076 17.995 12.7076 17.995ZM25.8076 12.895C25.3076 12.895 25.0076 12.495 25.0076 12.095C25.0076 11.695 25.4076 11.295 25.8076 11.295C26.3076 11.295 26.6076 11.695 26.6076 12.095C26.6076 12.495 26.2076 12.895 25.8076 12.895ZM25.8076 9.495C24.4076 9.495 23.2076 10.695 23.2076 12.095C23.2076 12.395 23.2076 12.695 23.3076 12.895L14.8076 17.395C14.3076 16.695 13.5076 16.295 12.7076 16.295C11.7076 16.295 10.8076 16.895 10.4076 17.695L2.80756 13.695C2.00756 13.295 1.40756 11.895 1.50756 10.695C1.50756 10.095 1.80756 9.595 2.10756 9.395C2.30756 9.295 2.60756 9.295 2.80756 9.395H2.90756C4.90756 10.495 11.6076 13.895 11.8076 14.095C12.2076 14.295 12.5076 14.395 13.2076 13.995L26.9076 6.895C27.1076 6.795 27.3076 6.595 27.3076 6.295C27.3076 5.895 26.9076 5.695 26.9076 5.695C26.1076 5.295 24.9076 4.795 23.8076 4.195C21.3076 2.995 18.5076 1.695 17.2076 1.095C16.1076 0.494999 15.3076 0.994999 15.1076 1.095L14.8076 1.195C9.20756 3.995 1.70756 7.695 1.30756 7.895C0.507563 8.395 0.107564 9.295 0.0075637 10.395C-0.0924363 12.195 0.807563 14.095 2.20756 14.795L10.3076 18.995C10.5076 20.295 11.6076 21.195 12.8076 21.195C14.2076 21.195 15.4076 20.095 15.4076 18.695L24.3076 13.895C24.8076 14.295 25.3076 14.395 25.9076 14.395C27.3076 14.395 28.5076 13.195 28.5076 11.795C28.3076 10.595 27.2076 9.495 25.8076 9.495Z" fill="#4285FD"/>
</svg>
