<svg width="12" height="9" viewBox="0 0 12 9" fill="none" xmlns="http://www.w3.org/2000/svg">
<path d="M10.5468 0.000133608C10.2224 -0.00428539 9.46888 0.0971266 8.21073 0.872557C7.52502 0.714742 6.79543 0.636865 6.06459 0.636865C5.26046 0.636865 4.44783 0.730897 3.69 0.922336C1.88366 -0.212446 1.08636 0.0201046 1.08636 0.0201046C0.565848 1.21875 0.8875 2.10619 0.985263 2.3266C0.373479 2.93462 0 3.71104 0 4.66262C0 5.38102 0.088791 6.02537 0.305721 6.5855C0.317752 6.62873 0.313852 6.61909 0.334122 6.6561C0.381914 6.77205 0.435052 6.88461 0.494777 6.99331C0.515242 7.03242 0.53387 7.06138 0.53387 7.06138C1.14368 8.10814 2.34581 8.78432 4.48469 8.99662L7.71963 9C10.0007 8.7917 11.0952 8.11351 11.5996 7.05968L11.6317 6.99106C11.6795 6.88461 11.7211 6.77384 11.8351 6.401C11.949 6.02816 12 5.38245 12 4.66234C12 3.62954 11.5788 2.80315 10.8947 2.17443C11.0142 1.81911 11.1739 1.03001 10.7353 0.0198166C10.7353 0.0198166 10.6738 0.00186161 10.5468 0.000124608L10.5468 0.000133608ZM7.99754 3.79019C8.52426 3.78914 8.97544 3.87242 9.31418 4.19968V4.19996C9.73804 4.60983 9.98609 5.10469 9.98609 5.63796C9.98609 8.12788 8.2471 8.19561 6.10216 8.19561C3.95684 8.19561 2.21822 7.85058 2.21822 5.63796C2.21822 5.10821 2.46264 4.61632 2.88128 4.20812C3.57959 3.52781 4.76133 3.88806 6.10217 3.88806C6.79044 3.88796 7.43686 3.79131 7.99756 3.79018L7.99754 3.79019ZM4.00212 4.5234C3.55581 4.5234 3.19399 5.07907 3.19399 5.76483C3.19399 6.45068 3.55579 7.00653 4.00212 7.00653C4.44843 7.00653 4.81025 6.45068 4.81025 5.76483C4.81025 5.07917 4.44845 4.5239 4.00212 4.5234ZM8.33807 4.5234C7.89176 4.5234 7.52994 5.07907 7.52994 5.76483C7.52994 6.45068 7.89174 7.00653 8.33807 7.00653C8.78438 7.00653 9.1462 6.45068 9.1462 5.76483C9.1462 5.07917 8.7844 4.5239 8.33807 4.5234Z" fill="#767676" fill-opacity="0.5"/>
</svg>
