<svg width="12" height="15" viewBox="0 0 12 15" fill="none" xmlns="http://www.w3.org/2000/svg">
<path d="M6.00098 15C6.87109 15 7.58299 14.3077 7.58299 13.4615H4.41896C4.41896 13.8696 4.58563 14.2609 4.88232 14.5494C5.17901 14.8379 5.5814 15 6.00098 15ZM10.747 10.3846V6.53846C10.747 4.17692 9.44978 2.2 7.18749 1.67692V1.15385C7.18749 0.515385 6.65751 0 6.00098 0C5.34444 0 4.81446 0.515385 4.81446 1.15385V1.67692C2.54426 2.2 1.25492 4.16923 1.25492 6.53846V10.3846L0.234516 11.3769C-0.26382 11.8615 0.0842244 12.6923 0.788223 12.6923H11.2058C11.9098 12.6923 12.2658 11.8615 11.7674 11.3769L10.747 10.3846Z" fill="#979797"/>
</svg>
