<svg width="20" height="20" viewBox="0 0 20 20" fill="none" xmlns="http://www.w3.org/2000/svg">
<path d="M10 20C15.5228 20 20 15.5228 20 10C20 4.47715 15.5228 0 10 0C4.47715 0 0 4.47715 0 10C0 15.5228 4.47715 20 10 20Z" fill="#FF0420"/>
<path d="M7.08532 12.6579C6.48988 12.6579 6.00204 12.5177 5.62176 12.2375C5.24648 11.9523 5.05884 11.5471 5.05884 11.0217C5.05884 10.9116 5.07136 10.7765 5.09636 10.6163C5.16144 10.2561 5.254 9.82327 5.37408 9.31791C5.71432 7.94191 6.59248 7.25391 8.00852 7.25391C8.3938 7.25391 8.73904 7.31895 9.04428 7.44903C9.34952 7.57411 9.58968 7.76427 9.7648 8.01947C9.93992 8.26963 10.0275 8.56987 10.0275 8.92011C10.0275 9.02519 10.015 9.15779 9.98996 9.31791C9.91492 9.76323 9.82484 10.1961 9.71976 10.6163C9.54464 11.3019 9.24192 11.8147 8.8116 12.155C8.38128 12.4902 7.80588 12.6579 7.08532 12.6579ZM7.1904 11.5771C7.47064 11.5771 7.70828 11.4945 7.90344 11.3294C8.1036 11.1643 8.2462 10.9116 8.33124 10.5713C8.44632 10.101 8.53392 9.69067 8.59396 9.34043C8.61396 9.23535 8.62396 9.12779 8.62396 9.01767C8.62396 8.56235 8.38628 8.33467 7.91096 8.33467C7.63072 8.33467 7.39056 8.41723 7.1904 8.58235C6.99528 8.74751 6.85516 9.00019 6.77012 9.34043C6.68004 9.67567 6.58996 10.086 6.49992 10.5713C6.47988 10.6714 6.46988 10.7765 6.46988 10.8865C6.46988 11.3469 6.71008 11.5771 7.1904 11.5771Z" fill="white"/>
<path d="M10.3721 12.5828C10.3171 12.5828 10.2745 12.5653 10.2445 12.5302C10.2195 12.4902 10.212 12.4452 10.222 12.3952L11.2578 7.51656C11.2678 7.46152 11.2953 7.41648 11.3403 7.38144C11.3854 7.34644 11.4329 7.32892 11.4829 7.32892H13.4794C14.0348 7.32892 14.4801 7.444 14.8154 7.67416C15.1556 7.90436 15.3258 8.23708 15.3258 8.6724C15.3258 8.79748 15.3108 8.9276 15.2807 9.06268C15.1556 9.63812 14.903 10.0634 14.5227 10.3386C14.1474 10.6138 13.632 10.7514 12.9765 10.7514H11.9633L11.618 12.3952C11.608 12.4502 11.5805 12.4952 11.5355 12.5302C11.4904 12.5653 11.4429 12.5828 11.3929 12.5828H10.3721ZM13.0291 9.71568C13.2392 9.71568 13.4218 9.65812 13.577 9.54304C13.7371 9.42796 13.8422 9.26284 13.8922 9.04768C13.9072 8.9626 13.9147 8.88756 13.9147 8.82252C13.9147 8.6774 13.8722 8.56732 13.7871 8.49228C13.702 8.4122 13.557 8.3722 13.3518 8.3722H12.4511L12.1659 9.71568H13.0291Z" fill="white"/>
</svg>
