<svg
  xmlns="http://www.w3.org/2000/svg"
  width="35"
  height="35"
  fill="none"
  viewBox="0 0 35 35"
>
  <g opacity="0.7">
    <path
      fill="#E1E1E1"
      stroke="#C4C4C4"
      d="M34.5 17.5c0 9.402-7.412 17-16.525 17-9.114 0-16.526-7.598-16.526-17 0-9.402 7.412-17 16.526-17C27.088.5 34.5 8.098 34.5 17.5z"
    ></path>
    <path
      fill="#3F7923"
      d="M14.31 12.133a.51.51 0 00-.367.157l-1.037 1.066a.543.543 0 000 .754L16.69 18l-3.785 3.89a.543.543 0 000 .754l1.038 1.066a.508.508 0 00.734 0l3.784-3.89 3.784 3.89a.508.508 0 00.734 0l1.038-1.066a.543.543 0 000-.754L20.233 18l3.784-3.89a.543.543 0 000-.754l-1.038-1.066a.508.508 0 00-.734 0l-3.784 3.89-3.784-3.89a.51.51 0 00-.367-.157z"
    ></path>
  </g>
</svg>