<svg width="8" height="8" viewBox="0 0 8 8" fill="none" xmlns="http://www.w3.org/2000/svg">
<path d="M3.1998 1.97659e-08C2.6905 7.29284e-05 2.18858 0.121684 1.73574 0.354726C1.2829 0.587768 0.892224 0.925511 0.596183 1.33988C0.300142 1.75426 0.107284 2.2333 0.0336372 2.73719C-0.04001 3.24108 0.00768094 3.75526 0.172746 4.23702C0.337812 4.71877 0.615484 5.15418 0.982687 5.50705C1.34989 5.85992 1.79602 6.12007 2.28399 6.26587C2.77197 6.41167 3.2877 6.43891 3.78833 6.34533C4.28895 6.25176 4.76001 6.04006 5.16235 5.72784L7.31692 7.88298C7.39204 7.95798 7.49387 8.00008 7.60003 8C7.70618 7.99993 7.80796 7.95769 7.88297 7.88258C7.95798 7.80747 8.00008 7.70565 8 7.59951C7.99993 7.49336 7.95768 7.3916 7.88257 7.3166L5.728 5.16226C6.09526 4.68925 6.32242 4.12269 6.38364 3.52701C6.44486 2.93132 6.33768 2.33041 6.0743 1.79261C5.81091 1.25481 5.40188 0.801694 4.89373 0.484796C4.38557 0.167899 3.79868 -6.65263e-05 3.1998 1.97659e-08ZM0.799606 3.19991C0.799606 2.56341 1.05248 1.95298 1.50261 1.5029C1.95273 1.05283 2.56323 0.799978 3.1998 0.799978C3.83637 0.799978 4.44686 1.05283 4.89699 1.5029C5.34711 1.95298 5.59999 2.56341 5.59999 3.19991C5.59999 3.83641 5.34711 4.44685 4.89699 4.89692C4.44686 5.34699 3.83637 5.59984 3.1998 5.59984C2.56323 5.59984 1.95273 5.34699 1.50261 4.89692C1.05248 4.44685 0.799606 3.83641 0.799606 3.19991Z" fill="#979797"/>
</svg>
