<svg width="12" height="10" viewBox="0 0 12 10" fill="none" xmlns="http://www.w3.org/2000/svg">
<path d="M12 1.18618C11.5587 1.38663 11.0846 1.52207 10.5863 1.58329C11.1005 1.26788 11.4852 0.771451 11.6686 0.186645C11.1855 0.480812 10.6567 0.687874 10.1053 0.798828C9.73454 0.39298 9.2434 0.123978 8.70818 0.0335847C8.17295 -0.0568083 7.62359 0.0364655 7.14537 0.298925C6.66716 0.561384 6.28685 0.978345 6.0635 1.48507C5.84015 1.9918 5.78624 2.55994 5.91016 3.10129C4.93122 3.0509 3.97355 2.79008 3.09932 2.33574C2.22508 1.8814 1.4538 1.2437 0.83555 0.464023C0.624152 0.837834 0.502598 1.27124 0.502598 1.73281C0.502363 2.14834 0.602184 2.5575 0.793206 2.92399C0.984229 3.29048 1.26055 3.60297 1.59764 3.83374C1.2067 3.82099 0.824385 3.7127 0.482516 3.5179V3.5504C0.482476 4.13319 0.679133 4.69804 1.03912 5.14912C1.3991 5.60019 1.90024 5.90971 2.4575 6.02514C2.09484 6.12575 1.71462 6.14057 1.34555 6.06848C1.50277 6.56993 1.80903 7.00844 2.22146 7.3226C2.63388 7.63677 3.13182 7.81086 3.64556 7.82052C2.77345 8.52231 1.69641 8.90299 0.587686 8.90131C0.391287 8.90137 0.195055 8.88961 0 8.8661C1.12542 9.60786 2.43548 10.0015 3.77345 9.99999C8.30265 9.99999 10.7786 6.15462 10.7786 2.81957C10.7786 2.71122 10.776 2.60179 10.7712 2.49344C11.2529 2.13641 11.6686 1.69429 11.9989 1.18781L12 1.18618Z" fill="#767676" fill-opacity="0.5"/>
</svg>
